<svg xmlns="http://www.w3.org/2000/svg" width="79.215" height="94.119" viewBox="0 0 79.215 94.119">
  <g id="_7-02" data-name="7-02" transform="matrix(-0.799, 0.602, -0.602, -0.799, 1041.545, -250.227)">
    <path id="Path_158" data-name="Path 158" d="M984.172,722.179s.9-.6-8.361-4.607a88.183,88.183,0,0,0-17.469-5.473s2.268,1,7.707,6.487,7.11,5.587,12.475,5.523,7.026-.145,7.026-.145,4.9,1.806-1.877,3.42-13.264,5.25-16.738,2.268-7.929-7.218-12.913-6.982l-4.987.233s1.971-1.388,4.051,3.511,6.891,4.859,11.35,5.206l4.458.347a27.581,27.581,0,0,1-9.56,1.375,22.4,22.4,0,0,0-13.122,4.317c-2.322,1.776-5.911.276-5.911.276s6.864,4.307,11.424,2.8,11.788-5.183,15.05-6.629a72.5,72.5,0,0,1,8.013-2.783s-.539,4.283-3.511,4.051-8.1,4.822-7.393,12.007,3,8.745,3,8.745-3.077-2.446.549-7.983,4.246-8.158,4.711-10.032a12.553,12.553,0,0,1,6.635-8.455c4.708-2.258,11.41-5.348,11.41-5.348S986.43,726.887,984.172,722.179Z" transform="translate(0 -360.875)" fill="#656842"/>
    <path id="Path_159" data-name="Path 159" d="M1908.864,447.222s-4.62,4.1-3.3,8.485,4.623,15.7,1.112,19.751l-3.511,4.054s5.938-3.612,1.247-8.944-9.527-9.732-2.652-17.089,6.672-7.717,6.672-7.717-12.718,1.152-14.339,6.042-1.853,7.862-7.447,10.9-10.716,8.276-9.442,11.734l1.274,3.457s-4.475-.714-2.588-7.838,2.46-10.666,8.822-13.186a19.448,19.448,0,0,0,9.105-7.09L1904,445.971s-1.062-2.912-6.612-2.834-9.365-2.335-12.907-6.8-3.724-8.34-3.724-8.34a7.475,7.475,0,0,0,6.8,6.9c6.517.805,10.7,3.2,13.442,6.4s9.951,3.05,9.951,3.05Z" transform="translate(-903.61 -86.349)" fill="#767b3d"/>
    <path id="Path_160" data-name="Path 160" d="M2545.879,347.636s-4.657-4.593-8.519-4.04-9.83-.465-13.277-2.895-5.732-3.8-1.189,2.278,6.854,8.007,15.491,6.676,5.944.462,5.392.489-2.773,4.017-5.21,7.279-3.265,5.334-3.912,11.289,4,6.291,4,6.291-4.836-.512-.833-5.884,10.564-15.488,10.564-15.488Z" transform="translate(-1526.812)" fill="#a29f64"/>
    <path id="Path_161" data-name="Path 161" d="M1671.962,654.346s-.883,4.853-6.881,7.171-9.089,7.457-10.11,9.358l-1.021,1.9-1.715-1.031,5.024-7.269s-12.192,4.458-13.425,5.813a34.035,34.035,0,0,0-2.615,3.454l-1.688-.475,2.632-3.083s-13.668,4.529-15.2,7.377l-1.533,2.848-1.705-.846,2.807-3.279-10.231,2.885-.8-1.257,5.287-1.729-3.245-2.069,1.6-1.372s-.566,3.727,8.546.708,11.69-3.326,11.69-3.326l-3.471-2.982.7-.772s2.6,4.135,6.022,2.123a64.575,64.575,0,0,1,8.7-3.926l-2.416-4.145.906-.414,2.723,2.834s3.808,2.227,10.4-3.265S1671.962,654.346,1671.962,654.346Z" transform="translate(-652.447 -305.066)" fill="#5a5f40"/>
  </g>
</svg>
