<svg xmlns="http://www.w3.org/2000/svg" width="1930.023" height="1216.709" viewBox="0 0 1930.023 1216.709">
  <g id="Group_146" data-name="Group 146" transform="translate(4.876 -435.451)">
    <path id="Path_490" data-name="Path 490" d="M390.337,479.448-.742,0" transform="translate(-0.758 635.796)" fill="none" stroke="#bd934b" stroke-width="3"/>
    <path id="Path_491" data-name="Path 491" d="M894.241,233.633-.742,0" transform="translate(76.153 945.881)" fill="none" stroke="#bd934b" stroke-width="3"/>
    <path id="Path_492" data-name="Path 492" d="M1145.1,0-.742,19.941" transform="translate(389.134 1094.741)" fill="none" stroke="#bd934b" stroke-width="3"/>
    <path id="Path_493" data-name="Path 493" d="M882.53-184.985-.742,47.5" transform="translate(1852.169 994.514) rotate(-180)" fill="none" stroke="#bd934b" stroke-width="3"/>
    <path id="Path_498" data-name="Path 498" d="M390.844-100.767,0,363" transform="translate(1924 994.514) rotate(-180)" fill="none" stroke="#bd934b" stroke-width="3"/>
    <path id="Path_499" data-name="Path 499" d="M1374.509,0-.742,593.956" transform="translate(547.354 693.519)" fill="none" stroke="#bd934b" stroke-width="3"/>
    <path id="Path_500" data-name="Path 500" d="M735.471,0-.742,595.938" transform="translate(1186.391 582.768)" fill="none" stroke="#bd934b" stroke-width="3"/>
    <path id="Path_501" data-name="Path 501" d="M981.748,0-.742,719.887" transform="translate(542.83 437.474) rotate(49)" fill="none" stroke="#bd934b" stroke-width="3"/>
    <path id="Path_503" data-name="Path 503" d="M-.2,2.783l551.9,696.59" transform="translate(-3.5 588.5)" fill="none" stroke="#b89257" stroke-width="3"/>
  </g>
</svg>
