<svg xmlns="http://www.w3.org/2000/svg" width="77.324" height="126.129" viewBox="0 0 77.324 126.129">
  <g id="Layer_4" transform="matrix(0.105, -0.995, 0.995, 0.105, 0, 120.518)" opacity="0.9">
    <g id="Group_4" data-name="Group 4" transform="translate(0 0)">
      <path id="Path_162" data-name="Path 162" d="M67.621,44.5s-10.614-1.664-8.56-4.76,2.135-10.39-3.087-12.867L50.753,24.4s-1.79,4.5,1.153,10.318l2.943,5.819s-12.292-3.275-11.229-8.7S44.566,20.767,41,18.488L37.42,16.209s-3.145,7.12.265,12.925l3.41,5.805h0l-9.78-6.85s-.974-1.624.126-5.41-.193-9.4-3.051-11.22L25.531,9.637s-3.351,8.533-1.4,12.252l1.956,3.719-7.165-5.5s-1.458-2.319,1.063-5.428,1.467-8.73-2.355-11.7L13.813,0S7.77,3.414,12.387,10.61L17,17.8s-7.1-2.2-11.548-1.409S.372,20.727.188,23.082L0,25.437s1.615-1.445,10.287-2.8,10.121.731,10.121.731-8.717-1-9.753,5.841a67.354,67.354,0,0,0-1,8.483,13.826,13.826,0,0,0,9.529-5.366c3.656-5.011,8.1-6.281,12.656-1.907L36.4,34.8s-9.843,1.377-10.457,5.859l-.615,4.477s8.506,2.176,12.642-2.611,1.265-7.079,1.265-7.079l11.139,4.473s-6.541,2.014-8.08,7.218l-1.539,5.2s4.316,4.141,11.009-2.109,1.413-11.314,17.752-5.536" transform="translate(0 0)" fill="#8f9973"/>
      <path id="Path_163" data-name="Path 163" d="M51.085,15.042s-18.349-.561-20.749-3.1S25.7,3.576,21.193,1.786L16.689,0s-.763,8.712,3.768,11.678l4.527,2.965S15.06,12.261,11.072,12.7,3.993,11.314,2,17.232L0,23.149S7.313,24.41,12.62,19.6s9.269-6.536,14.23-5.464a35.759,35.759,0,0,0,7.308,1.023s-7.272.619-6.433,7.187l.839,6.563s8.461-.175,9.506-6.308S34.607,13.97,51.085,15.042Z" transform="translate(67.222 36.41)" fill="#b4b770"/>
      <path id="Path_164" data-name="Path 164" d="M112.376,37.743s-20.251,1.3-24.9-1.956l-4.652-3.253L86.45,37.4s-5.087,1.162-13.791-1.83-21.274-5.733-21.274-5.733L44.723,23.1l2.391,4.711-12.27-5.038s-1.857-4.545-2.23-5.594.449,4.751.449,4.751L22,15.276,20.964,8.066l-.933,6.191L12.144,7.9,10.22,0s.677,7.214-3.9,7.663A24.223,24.223,0,0,0,0,8.851s10.081,1.377,13.634,2.894-1.31,4.787-1.31,4.787-2.2-4.186,8.134,1.068,6.227,11.332,6.227,11.332,2.611-1.642,4.868-3.275-.049-2.467,7.25.911,3.333,7.689,3.333,7.689S45.019,28.73,50,30.924,70.954,38.25,70.954,38.25l-2.894,5s3.1-3.768,6.81-3.136,16.77.888,17.474.875l3.526-.072-4.5,4.15A14.694,14.694,0,0,1,101.685,40.8C108.379,40.645,120.249,43.4,112.376,37.743Z" transform="translate(7.344 10.861)" fill="#7d6e62"/>
    </g>
  </g>
</svg>
