<svg xmlns="http://www.w3.org/2000/svg" width="191.137" height="204.066" viewBox="0 0 191.137 204.066">
  <g id="Layer_4" transform="translate(-489.372 1134.425) rotate(-76)" opacity="0.9">
    <g id="Group_3" data-name="Group 3" transform="translate(1042.042 226.139)">
      <path id="Path_111" data-name="Path 111" d="M1899.513,1562.4s3.338,4.726-.46,8.065-6.564,3.685-6.564,3.685,5.3,2.307,8.983.572l3.686-1.726a18.933,18.933,0,0,1-9.443,5.411c-5.532,1.041-6.452,2.307-7.952.572l-1.5-1.726s9.564,9.33,16.814,4.726l7.258-4.6s3.686,5.3,2.645,8.177.234,5.992,2.879,9.79,3.451,4.258,3.451,4.258,1.041-4.032-.694-12.669-2.654-10.6-2.654-10.6,2.879,4.145,10.024,4.839l7.145.694s-5.411-5.758-10.943-11.516a60.5,60.5,0,0,0-14.741-10.6" transform="translate(-1802.186 -1426.937)" fill="#b5867e"/>
      <path id="Path_112" data-name="Path 112" d="M2098.963,1545.823a5.63,5.63,0,0,1,1.613,3.226c0,1.613.807,2.879,1.726.572s7.024-2.992,7.952,2.185,1.154,9.9-2.186,10.943-2.185,1.153-3.225,3.573-4.726,5.758-8.177,3.226-3.919-9.33,1.612-8.411,6.339-1.153,3.452-5.3S2098.963,1545.823,2098.963,1545.823Z" transform="translate(-1989.314 -1414.394)" fill="#e7a035"/>
      <path id="Path_113" data-name="Path 113" d="M2052.826,1548.168s4.258,10.484,6.677,7.258,3.339-3.573,3.573-1.266,1.5,4.951.113,4.951-1.5,1.726,1.153,2.419,3.113,4.492.807,4.839-6.339,0-6.677-1.266-.234,3.572,4.258,3.572,6.911-2.879,6.339-5.992,2.42-2.419,3.685-6.339-2.073-7.83-2.073-7.83,1.847,3.113-.919,4.726-5.645-1.5-6.1-4.258-.113-6.8-4.379-4.951A20.922,20.922,0,0,0,2052.826,1548.168Z" transform="translate(-1952.16 -1412.359)" fill="#e7b660"/>
      <path id="Path_114" data-name="Path 114" d="M2611.483,1081.567s5.3-2.766,9.677-5.532,7.6-3.686-.234,1.847-5.3,10.831-.234,8.29a46.413,46.413,0,0,0,14.976-12.443c4.379-5.532,5.532-3.226,2.072,1.613l-3.451,4.839,6.677-5.758s-.46,4.6-6.451,8.29a58.909,58.909,0,0,1-11.975,5.532s11.29-.919,14.741-1.153,6.451,1.153-6.677,2.072-20.039,1.379-21.427,1.613,2.073,20.274,8.064,21.193,8.064,3.451,17.741.234,13.588-2.766,8.524-1.379l-5.064,1.379s5.532,2.992,9.677,2.992,5.064,2.307-2.991,1.153a94.683,94.683,0,0,0-11.75-1.153l7.6,5.992s-.46,2.306-4.6-.225-14.742-4.6-19.814-4.839l-5.064-.234s2.992,10.6,8.524,13.363,6.451,5.3.459,2.532l-5.992-2.766,12.444,7.6s.459,4.6-10.137-3.226l-10.6-7.83s.919,13.128,11.29,14.516,13.822,1.838,15.435,4.379.234,3.226-3.919,1.153-3.226,1.838-1.379,3.685-.234,2.073-3.919-1.379-4.6-1.613-1.613.919-3.226,3.226-4.839-1.379a27.76,27.76,0,0,0-2.766-6.217s-1.613,4.379,0,6.452l1.613,2.072s-4.379-2.072-4.838-5.758-7.831-12.9-7.831-12.9-5.992-48.378,7.831-48.837" transform="translate(-2446.77 -986.418)" fill="#c8baab"/>
      <path id="Path_115" data-name="Path 115" d="M2324.937,1648.826s4.145,14.742,4.726,19.008,0,9.443-3.113,12.782l-3.113,3.339a19.947,19.947,0,0,0,15.782-6.8c6.451-7.6,9.885-8.394,7.371-21.306C2345.783,1651.7,2324.937,1648.826,2324.937,1648.826Z" transform="translate(-2195.82 -1507.138)" fill="#b67d6e"/>
      <path id="Path_116" data-name="Path 116" d="M2354.694,1648.421a53.708,53.708,0,0,0,3.451,13.822c2.879,7.145,2.644,10.363,1.5,13.363l-1.153,2.992a33.145,33.145,0,0,0,9.79-6.339c5.064-4.6,7.258-8.984,4.951-16.935S2354.694,1648.421,2354.694,1648.421Z" transform="translate(-2223.965 -1506.733)" fill="#c39d4b"/>
      <path id="Path_117" data-name="Path 117" d="M2378.315,1692.709s.919,10.137-1.378,16.589-3.226,7.145-3.226,7.145,7.145-5.064,9.9-8.29l2.766-3.226s-5.532,7.6-12.209,12.444l-6.677,4.838s5.3-6.217,3.226-14.282l-2.073-8.064s5.758,8.29,4.145,11.975l-1.613,3.685S2377.622,1712.063,2378.315,1692.709Z" transform="translate(-2235.489 -1546.65)" fill="#ab6442"/>
      <path id="Path_118" data-name="Path 118" d="M1187.545,676.9s-.694-2.419-6.911-.173-15.548,2.246-24.531-1.379-10.536-4.665-10.536-4.665,19.008-12.1,29.023-4.492S1187.545,676.9,1187.545,676.9Z" transform="translate(-1135.257 -620.105)" fill="#572e1c"/>
      <path id="Path_119" data-name="Path 119" d="M1498.747,754.492s-10.709-9.5-16.588-13.3-2.419-3.972,3.113-.867S1498.4,751.041,1498.747,754.492Z" transform="translate(-1435.576 -687.161)" fill="#655249"/>
      <path id="Path_120" data-name="Path 120" d="M1331.991,892.675c-.347.234-11.056,2.532-21.193-7.952s-10.362-10.484-10.137-10.484,5.992-.807,14.863-2.766,15.895-3.113,25.225,1.96l9.33,5.064-17.62,14.394" transform="translate(-1274.863 -805.703)" fill="#bd7b7d"/>
      <path id="Path_121" data-name="Path 121" d="M1371.379,899.57s-3.226,1.5-12.322.919-16.354.694-19.233.694h-2.879s5.758,7.83,18.2,9.9,16.241,1.379,16.241,1.379l-.46-13.128Z" transform="translate(-1307.575 -832.291)" fill="#caa37a"/>
      <path id="Path_122" data-name="Path 122" d="M1401.517,909.663s-8.758-2.766-14.516-4.726-8.524-3.226-8.524-3.226,6.564-4.379,13.935-4.492l7.371-.113-14.975,3.8s2.073,1.266,10.362-1.266,9.443-2.653,9.443-2.653l-11.975,6.217,13.016,5.411Z" transform="translate(-1344.97 -830.174)" fill="#9c7a36"/>
      <path id="Path_123" data-name="Path 123" d="M1409.445,1410.354s-4.726-2.419-8.758-1.847l-4.032.572a7.125,7.125,0,0,0,3.8,4.258,29.662,29.662,0,0,0,3.451,1.266s-.693,3.339-3.226,3.226-7.024-3.113-9.33-2.532-3.113.694-3.113.694.113,4.032,5.3,4.032,5.645-.234,5.645-.234-4.839,5.411-6.911,6.1-2.992-.919-6.1-2.072a26.609,26.609,0,0,1-5.87-3.226s-1.041,5.645,2.185,7.024,6.1,2.645,6.1,2.645.234,2.073-5.064.46-8.524.572-8.524.572,1.5,5.992,6.452,4.726l4.951-1.266s-2.766,3.339-1.613,6.911l1.153,3.573h0a10.691,10.691,0,0,0,4.145-8.637c-.234-5.524.113-5.992.113-5.992a26.049,26.049,0,0,0,3.226,4.952c1.613,1.726,1.153,1.613,1.613,1.726s1.613-4.032.919-7.6l-.694-3.573,3.919-3.8s-2.766,1.726-.572,4.839l2.185,3.113s3.113-1.725,2.992-7.024l-.113-5.3,1.96-1.847s.806,5.073,2.185,7.024,2.307,1.96,2.307,1.96a13.578,13.578,0,0,0,2.879-8.524C1413.009,1411.282,1409.445,1410.354,1409.445,1410.354Z" transform="translate(-1341.834 -1290.674)" fill="#93947f"/>
      <path id="Path_124" data-name="Path 124" d="M1459.788,1442.4s-3.8.46-6.217-.694l-2.419-1.153s4.032,1.96.919,4.266-4.145,2.185-6.452,2.419-1.613.459-1.613.459l3.451,1.266a59.391,59.391,0,0,0-6.1,5.87c-1.726,2.185-6.677,1.041-6.677,1.041l4.725,1.96s-4.145,3.919-7.023,4.379l-2.879.46s2.645,2.879,5.645.694a41.2,41.2,0,0,0,5.645-5.185s1.379,1.379,1.379,2.185v.806s1.613-2.532,1.04-4.145,2.419-2.879,4.032-4.726l1.613-1.838.919,3.8s-3.8-2.532,1.726-6.339S1459.788,1442.4,1459.788,1442.4Z" transform="translate(-1390.911 -1319.611)" fill="#737158"/>
      <path id="Path_125" data-name="Path 125" d="M2146.811,681.123s-2.185-4.032-1.5-8.064l.693-4.032s2.992-.113,5.412,3.451,1.5,6.1,4.145,3.451a18.034,18.034,0,0,1,4.726-3.573l.459-7.6s-5.645-3.226-6.217-8.177-.572-6.1-.572-6.1,6.339,1.266,7.483,5.3l1.153,4.032,3.225-5.186s0-6.217,7.371-6.911l7.371-.694s1.846,4.726-6.452,8.064-10.831,4.258-11.29,8.29-2.653,5.3,1.379,4.6,5.411.234,7.484,2.419l2.072,2.185a8.664,8.664,0,0,1-7.37,2.766c-4.6-.572-7.484-2.419-10.25,2.766C2153.375,683.308,2146.811,681.123,2146.811,681.123Z" transform="translate(-2035.314 -605.095)" fill="#a9ac63"/>
      <path id="Path_126" data-name="Path 126" d="M2150,709.636s8.064,4.6,5.532.113-1.153-7.483.919-4.6,6.911-.806,7.718-6.451a29.755,29.755,0,0,0-.694-10.943,4.582,4.582,0,0,1,2.419,3.573l.113,2.419s-1.266-7.371,3.452-10.024a40.77,40.77,0,0,1,7.483-3.451s-3.8-1.153-6.677,6.8-5.758,14.169-2.073,13.935l3.685-.234s-2.653-1.726-6.1,1.847a68.187,68.187,0,0,0-7.717,10.709C2157.592,714.127,2150,709.636,2150,709.636Z" transform="translate(-2039.652 -634.986)" fill="#8b815a"/>
      <path id="Path_127" data-name="Path 127" d="M1100.2,1021.734s-5.532-1.552-7.952.52-2.072,6.217-6.738,8.463-6.391,1.726-6.391,1.726,2.073-6.564,4.839-8.463l2.766-1.9-7.778.347s2.766,3.113-2.073,6.738-12.1,6.217-7.778.347,4.838-7.6,4.838-7.6-6.911-2.94-8.116,1.9-2.94,9.5-5.533,10.882l-2.593,1.379s1.379-1.379,1.379-5.87a54.208,54.208,0,0,0-.347-6.911s-4.839,3.286-5.012,6.217,0,6.738-3.972,7.952-7.258-1.205-3.625-4.665a35.169,35.169,0,0,0,6.044-8.117s-8.81,2.073-9.851-3.8,1.041-6.044,4.492-3.286,10.024,4.492,10.024,4.492-7.6-3.625-4.839-8.637l2.766-5.012s2.593,2.593,4.318,8.29l1.726,5.706,11.923-1.726s-4.839-2.593-5.012-7.6l-.173-5.012s7.778,5.532,8.81,9.157,3.8,5.185,6.564,4.145,1.726-2.94.867-4.665l-.867-1.726s.173,2.419,3.8,2.94,4.665,2.419,4.665,2.419Z" transform="translate(-1042.042 -930.21)" fill="#8c9075"/>
      <path id="Path_128" data-name="Path 128" d="M1137.411,1101.1s-6.564-1.379-9.851.867l-3.286,2.246s3.971-2.939-1.552-2.939-7.6.347-9.851,3.113l-2.246,2.766s7.258-6.044,1.552-5.87a40.712,40.712,0,0,0-8.81,1.041l-3.8,3.624s1.379-4.492-1.041-3.286-6.738,3.972-8.463,4.839l-1.725.867s3.286-3.625-.173-5.532l-3.46-1.9s4.839,1.552,8.463.347a6.859,6.859,0,0,0,4.492-3.8s-3.971,2.939,4.839,2.593,11.576-1.379,10.024-3.286l-1.552-1.9s-1.379,4.318,4.839,4.145,10.536-.174,10.536-.174l-3.286-3.625s1.379,3.451,6.738,3.286C1135.165,1098.335,1146.047,1099.2,1137.411,1101.1Z" transform="translate(-1080.457 -1008.372)" fill="#6f644f"/>
      <path id="Path_129" data-name="Path 129" d="M1553.593,450.992s-9.443-6.564-13.822-13.016-4.258-11.75-3.113-21.652,1.153-11.975,1.153-11.975,2.766,6.451,8.637,9.9,17.854,10.024,18.774,22,.919,16.129.919,16.129Z" transform="translate(-1486.788 -386.6)" fill="#803545"/>
      <path id="Path_130" data-name="Path 130" d="M1566.563,523.823a50.892,50.892,0,0,1-12.782-13.588c-5.992-9.1-2.419-17.161-1.5-21.08l.919-3.919a13.762,13.762,0,0,0,7.6,6.911c5.87,2.419,14.629,5.758,16.814,14.516s2.992,21.54,2.992,21.54Z" transform="translate(-1499.759 -459.432)" fill="#af7a6c"/>
      <path id="Path_131" data-name="Path 131" d="M1615.569,599.431s-9.79-9.556-11.75-18.427-.572-12.443-.572-12.443,4.379,1.726,9.9,8.064,6.564,9.565,6.564,9.565-4.951-9.677-8.524-13.475l-3.573-3.8s9.677,2.419,12.322,6.451,2.991,11.177,3.8,17.048,1.5,14.516,1.5,14.516Z" transform="translate(-1546.926 -534.458)" fill="#c4a887"/>
      <path id="Path_132" data-name="Path 132" d="M1658.964,623.78s-4.951-4.145-7.145-14.975-2.645-12.556-2.645-12.556,8.177,6.217,10.371,10.25l2.185,4.032s1.041-6.1-1.379-9.677l-2.419-3.573s8.871,1.153,9.9,13.935,1.041,13.362,1.041,13.362Z" transform="translate(-1588.709 -559.389)" fill="#b38544"/>
      <path id="Path_133" data-name="Path 133" d="M1661.765,623.174s-.113-2.645-6.339-13.709-6.339-13.128-6.339-13.128,9.9,13.822,11.637,19.008l1.726,5.185-1.726-12.443s5.411,13.363,5.532,18.548S1661.765,623.174,1661.765,623.174Z" transform="translate(-1588.63 -559.467)" fill="#996b1e"/>
      <path id="Path_134" data-name="Path 134" d="M1791.859,286.039s-1.153-15.669-1.613-24.653-2.306-21.887-5.758-25.8.919-4.145,3.226,1.838,4.838,15.669,4.838,15.669-.459-10.6,2.766-18.2,12.443-12.209,6.451-5.532-6.911,14.048-7.6,24.653-.694,22.346-.234,24.193,1.153,4.145,1.613-8.749.694-19.12,3.46-22.58,8.064-2.307,8.064,3.919-1.153,7.371-1.613,3.685-1.847-9.443-4.145-6.452-2.992,4.839-2.992,13.822-.46,18.661-.46,18.661,1.847,5.532,2.072-7.6.919-22.112.919-22.112,1.379-4.6,1.379,5.064-1.153,17.742,3.451,11.75,10.831-9.1,14.395-9.9,5.532,1.266,5.645,4.258-1.725,3.573-2.185.694-4.6-2.419-11.169,2.992c-.46.382-.893.728-1.3,1.058-5.394,4.284-6.339,4.076-8.368,12.539-2.185,9.1.806,6.677,3.46,2.645s4.6-11.975,4.6-11.975c0-1.613.46-1.613.46-1.613s1.639,7.475-2.307,14.056l-2.072,3.451s5.3-4.379,6.677-8.524l1.379-4.145s3.226,10.371-3.451,18.427-7.6,10.137-7.6,10.137,9.218-12.443,12.443-14.741,10.137-6.451,10.137-13.588v-7.145s7.6,11.984-10.831,26.491-22.112,13.588-22.58,12.669S1791.859,286.039,1791.859,286.039Z" transform="translate(-1709.395 -226.139)" fill="#9c7c68"/>
      <path id="Path_135" data-name="Path 135" d="M1344.714,1186.141s-5.992,7.718-13.935,10.709-13.588,5.411-15.088,6.564-3.685,5.757,1.847,2.532a51.162,51.162,0,0,1,8.29-4.145s-7.024,6.8-8.984,9.33-1.847,4.952.572,2.992,1.96,1.379,1.847,4.839,1.379,4.839,2.185-1.041a23.188,23.188,0,0,1,5.645-12.322l2.307-2.766s-5.064,10.709-5.185,15.435,1.266,5.3,1.959,1.5,1.5-1.726,1.5-1.726-.46-.919.806-4.839,4.6-11.75,6.452-13.935,2.185-1.379.807,3.338-.919,6.564-.113,4.839,1.613-1.613,2.073-.113,1.266,1.613.459-1.613,1.266-6.8,1.266-6.8-.113-.572,1.266,1.379,4.032.806,2.532-2.307-3.685-4.726,1.96-7.484S1344.714,1186.141,1344.714,1186.141Z" transform="translate(-1286.894 -1090.533)" fill="#6b5849"/>
      <path id="Path_136" data-name="Path 136" d="M1265.508,1372.366c0,.954-1.24,1.725-2.766,1.725s-2.766-.772-2.766-1.725,1.24-1.725,2.766-1.725S1265.508,1371.412,1265.508,1372.366Z" transform="translate(-1238.271 -1256.658)" fill="#4a3e38"/>
      <ellipse id="Ellipse_1" data-name="Ellipse 1" cx="1.899" cy="1.986" rx="1.899" ry="1.986" transform="translate(44.944 116.663)" fill="#4a3e38"/>
      <path id="Path_137" data-name="Path 137" d="M1451.844,1491.085a1.778,1.778,0,1,1-1.769-1.6A1.685,1.685,0,0,1,1451.844,1491.085Z" transform="translate(-1407.845 -1363.67)" fill="#4a3e38"/>
      <path id="Path_138" data-name="Path 138" d="M2376.555,876.81a31.685,31.685,0,0,1,4.491-15.2c4.492-7.084,10.2-14.863,10.2-14.863s3.451,18.314-5.012,25.052l-8.463,6.738s2.073,3.625,5.012.694,3.971-1.726,7.951-8.463,8.29-11.229,11.576-13.475l3.286-2.246s2.94,12.955-6.044,16.415-11.4,3.8-12.955,5.879-6.391,4.145-8.984,3.625C2374.994,880.434,2376.555,876.81,2376.555,876.81Z" transform="translate(-2243.233 -784.939)" fill="#48291d"/>
      <path id="Path_139" data-name="Path 139" d="M2295.662,1120.478a12.05,12.05,0,0,0,7.432-3.971c3.625-3.8,7.6-4.145,4.839-1.9s.347,3.971,4.665.347,7.952-3.625,5.532-1.552-7.084,2.419-.173,3.451,7.432,3.971,2.419,3.971-10.362-2.766-15.2-1.041-3.625,4.145,1.041,3.46,4.665,2.94-.867,3.971S2295.662,1120.478,2295.662,1120.478Z" transform="translate(-2170.811 -1023.777)" fill="#725e58"/>
      <path id="Path_140" data-name="Path 140" d="M2250.683,1242s2.185-11.637,5.186-12.1,5.87-1.613,10.362-2.307,12.209-3.92,15.669,3.451,3.226,28.685,1.5,31.442-22.233,10.943-27.072,5.645-7.952-13.71-8.064-14.169S2250.683,1242,2250.683,1242Z" transform="translate(-2128.13 -1126.688)" fill="#5d222f"/>
      <path id="Path_141" data-name="Path 141" d="M2333.518,1136.489s.139.069.381.174c1.318.555,5.836,2.133,10.1-.286,5.064-2.879,5.411-6.1,4.726-8.064s-1.96-4.839-5.186-2.766-4.257,1.847-4.6-.573-.234-4.379-2.992-1.5-3.113,5.186-6.452,4.032-11.29-.572-9.677,1.154-2.879,2.306-5.532,3.919-2.992.807-5.992.46-4.258,1.041-2.185,3.8,2.766,4.032.234,6.564-2.766,5.758-2.419,5.758,6.1-.919,6.217-6.339.46-7.83,4.6-6.217,7.484,1.266,7.83-1.153,6.1-1.613,7.024,5.064" transform="translate(-2178.136 -1032.816)" fill="#471e27"/>
      <path id="Path_142" data-name="Path 142" d="M2293.39,1252.194s-11.75-5.3-15.548-3.919-9.677,2.532-1.266,3.919,12.322,5.064,10.943,6.564-3.226,2.185-1.041,3.451-1.5,1.379-2.766,1.725-3.572,4.032-1.379,5.186,9.218,1.153,11.637-.572,8.871,3.8,4.492,3.573a31.816,31.816,0,0,0-9.677,1.5s-.234.234,5.186.347,10.362,1.032,16.007-3.573,9.218-13.709,9.565-16.588a10.356,10.356,0,0,0-4.726-9.9c-4.258-2.992,4.491-2.072,5.758,2.185s9.33,7.024,6.452,1.153-6.218-6.339-6.218-9.556-2.879-5.645-5.87-6.218-5.992-2.185-9.443-3.8-10.024-4.839-7.146-.113,2.306,6.911-1.847,8.411-6.564,3.92-8.524,2.766-8.065-.347-9.443,2.419-4.257,5.185,2.532,6.564A47.347,47.347,0,0,1,2293.39,1252.194Z" transform="translate(-2149.757 -1125.603)" fill="#4f2734"/>
      <path id="Path_143" data-name="Path 143" d="M2258.061,1280.073s-5.186.694-3.572,4.379,5.645,6.339-.919,6.8-10.249-.347-8.636-2.185l1.613-1.847a5.078,5.078,0,0,0-4.032,2.072c-1.266,2.073-.573,0-1.379-2.879a34.028,34.028,0,0,0-1.266-3.92s-5.3-.234-5.992,2.532-1.847,8.871-3.685,10.249.807,6.911,5.064,11.75,10.484,11.984,17.508,10.709,7.6-1.266,9.443-.806,7.024-1.613,10.137-5.758.572-6.677-1.726-4.839-1.847-1.379,2.879-2.879,6.564-7.37,6.1-10.024-.694-2.879-.694-2.879,2.767,3.8,4.6,3.8.919-.347-.46-2.879-6.677-6.8-7.483-5.87,2.072,5.992-2.072,10.484-5.064,7.37-9.79,7.483-9.677,0-8.758,2.645-1.5,7.258-4.032,5.185-4.145-3.8-5.3-1.726-3.572,3.113-7.483-2.185-4.492-15.435,3.451-13.25,13.588,5.185,13.822,7.258-.347,4.032,4.258,1.5,7.717-3.573,8.29-7.483.346-10.484-3.686-10.484-5.992-3.92-2.766-3.338,4.492-3.685,1.847-5.645l-2.654-1.96S2262.328,1276.848,2258.061,1280.073Z" transform="translate(-2111.324 -1169.715)" fill="#331c28"/>
      <path id="Path_144" data-name="Path 144" d="M2510.654,1245.285s-4.145-1.5-6.677-2.185-5.871-2.072-4.839,1.153-2.419,6.217-2.419,6.217,2.185-1.96.572-4.145-.347-4.032,1.959-5.992,3.8-2.992,2.992-4.726l-.807-1.726a13.027,13.027,0,0,1,7.024,5.185c2.992,4.258,7.718,4.726,4.726.919s-11.056-9.565-11.637-10.024,1.725-1.847,6.339,1.726,8.758,7.483,8.758,10.362,1.847,3.92,3.113,4.032,2.766,5.645,2.879,6.339-2.766-1.5-3.338-2.185,2.072,2.992-.919,5.064l-2.991,2.072s1.847-4.032.234-6.8A22.446,22.446,0,0,0,2510.654,1245.285Z" transform="translate(-2351.708 -1129.403)" fill="#2a191d"/>
      <path id="Path_145" data-name="Path 145" d="M2462.619,1484.527s-.348,3.451-3.227,4.6-4.145,3.573-.572,2.419,7.024.919,5.645,4.145-2.766,8.637-6.911,9.33-6.911.234-9.218,1.5l-2.307,1.266,4.838-5.871s.694,3.919,5.186.459,7.146-9.677,1.847-7.371-8.412-.347-6.339-2.307S2459.505,1487.874,2462.619,1484.527Z" transform="translate(-2306.204 -1359.202)" fill="#2a191d"/>
      <path id="Path_146" data-name="Path 146" d="M1791.513,1222.723c0,.694,16.129-.694,17.274-6.217l1.153-5.532s3.226-2.766,3.226,7.83-7.83,22.572-12.669,21.653-3.92.234-5.532,3.685-10.6,7.83-13.129,4.839-3.451-.46-1.847,1.379-6.911,8.75-17.282-2.991-7.83-24.653-1.379-28.564S1791.513,1222.489,1791.513,1222.723Z" transform="translate(-1684.63 -1112.599)" fill="#fcded6"/>
      <path id="Path_147" data-name="Path 147" d="M1713.3,1209.3a14.655,14.655,0,0,1,1.726,10.024c-1.041,5.87-.694,11.75-10.883,12.27s-15.374-1.9-12.955,1.552,1.552,9.33-.52,7.952-3.46-2.593-4.318.52-3.8,4.318-8.637.173-10.2-1.205-8.636,1.552.173,6.911-6.564.347S1651.8,1229,1649.031,1221.58s5.706-8.984,13.3-8.984C1669.93,1212.579,1713.3,1209.3,1713.3,1209.3Z" transform="translate(-1588.098 -1111.387)" fill="#f6c3a0"/>
      <path id="Path_148" data-name="Path 148" d="M1603.908,838.323s7.258-3.972,7.952-6.044-.694-6.911-5.706-2.593-16.242,15.895-13.475,22.285,3.286,11.056,2.593,13.129-2.593,4.492,3.113,12.1,10.709,14.863,16.588,15.036,10.024-2.419,14.169-3.625,13.649-6.911,14.863-5.87,7.085,5.532,12.27-1.552,8.29-14.343,8.29-22.285-10.371-16.588-12.955-18.834-5.359-1.9-5.871-.694-.52-2.073-.867-3.8-2.073-1.552-7.258-3.113-12.617-1.205-14.342-3.625-6.391-3.286-8.81,1.205-4.839,9.5-4.839,9.5Z" transform="translate(-1537.451 -767.021)" fill="#fdf3f2"/>
      <path id="Path_149" data-name="Path 149" d="M1635.466,880.683s-10.536,9.33-2.246,17.108,12.1,11.4,8.983,11.4-12.444-11.4-12.444-11.4-4.665-7.084-1.725-11.4-3.625-2.419-4.145,1.9,3.971,7.431,1.725,9.5.347,6.391,5.533,10.709,8.463,7.778,11.056,5.012,7.085-3.8,12.1,0,6.564,4.839,1.726,5.532-7.084,2.94-6.564,3.113,10.2-1.726,14.689-5.359,8.116-36.975,1.726-38.354-11.923-6.217-14.689-6.217,3.972-10.024,7.431-6.217,7.6,6.391,5.359,1.041-8.116-7.258-12.955-3.451-7.431,4.492-6.738,2.073-3.451-5.012-5.359-1.041C1637.027,868.586,1635.466,880.683,1635.466,880.683Z" transform="translate(-1565.904 -798.315)" fill="#f3dbd8"/>
      <path id="Path_150" data-name="Path 150" d="M1745.6,911.292a18.35,18.35,0,0,0,7.6-9.33,68.586,68.586,0,0,0,2.766-12.27s3.972,2.766.521,12.617-2.593,18.661.867,14.169a44.824,44.824,0,0,0,7.432-12.955q2.588-7.258,2.593-7.258s-.173,16.589-6.564,20.386-6.044,4.839-14.169,4.145-9.5,2.593-13.649,3.286-8.983,5.359-14.169,2.419a36.212,36.212,0,0,1-7.084-4.839s6.391,4.665,11.229,2.766,3.625-1.379,7.431-1.9,8.637-1.9,1.9-5.532a27.139,27.139,0,0,1-10.024-9.5s5.012,9.5,10.709,2.419-5.532-17.967-9.5-19.008-15.895-10.024-15.895-14.863,3.451-9.33,7.084-10.2,6.564-2.94,3.451,4.318-2.593,8.29,4.319,7.258,8.116.867,8.636,1.214-8.116-1.041-9.677,2.94-1.379,5.87,6.218,9.157C1735.242,894.01,1745.6,911.292,1745.6,911.292Z" transform="translate(-1641.313 -801.281)" fill="#e4baad"/>
      <path id="Path_151" data-name="Path 151" d="M1690.782,881.9s-.807-3.573-4.266-3.8-5.992-6.217-2.532-10.484,5.758-9.79.234-6.452-9.677,9.79-5.3,13.25,5.758,3.685,4.145,6.8-2.766,7.024,1.96,9.556,5.758,3.573,5.645,5.758,1.613,3.685,1.847,1.266,2.766-1.613,4.492,2.072,2.879,5.411,5.064,4.492,2.653-1.153,2.653-1.153,0,4.839-5.645,2.072-5.992-3.226-5.992-3.226,5.186,7.492,9.443,5.758,4.492-3.226,4.492,1.379,8.637,5.064,13.016-.113,8.177-6.677,6.452-12.443-8.064-9.677-15.669-10.137S1690.782,881.9,1690.782,881.9Z" transform="translate(-1613.841 -796.997)" fill="#fde9db"/>
      <path id="Path_152" data-name="Path 152" d="M1986.915,977.631s1.847-3.919,1.96-5.992,1.725,1.04,4.032-1.847,7.258-6.452,8.758-.46,2.307,10.943.573,14.169,2.766-4.258,2.185-8.749-2.992-10.6,1.379-7.483,7.718,11.4,5.411,10.6-5.758.234-4.032,3.573-2.654,8.637-6.339,9.564C1997.165,991.913,1986.915,977.631,1986.915,977.631Z" transform="translate(-1892.813 -892.385)" fill="#f6e7e6"/>
      <path id="Path_153" data-name="Path 153" d="M1804.813,998.347s1.379-3.573-3.573-3.92-7.83-7.83-2.306-8.177,5.411-1.153,6.217-2.532,2.532-2.072,4.6-1.153,4.839.806,5.758-1.041,3.338-2.654,1.726,2.653,0,11.516,2.653,11.862,7.145-1.96,7.024-4.145,2.645-5.532,2.645-8.524-.919-5.3-1.613-5.3,5.064-3.226,5.645,2.653-.693,7.952,1.96,9.443.919,10.6-2.307,15.669-3.113,2.073-2.073-1.266,1.266-2.419-4.726-2.532-22.32-3.972-22.32-3.972Z" transform="translate(-1720.848 -902.391)" fill="#f5c7be"/>
      <path id="Path_154" data-name="Path 154" d="M1851.521,1084.65s.781-1.9-2.159-4.752-5.359-6.478-.26-7.6,5.619-.087,7.084-2.246,8.039-3.373,11.229.867,3.113,3.538,3.625,1.813,2.593-1.379,2.419,1.465.434,5.784,1.205,3.972l.78-1.812s2.766,5.012-1.9,6.564-7.431.867-10.883,3.538-6.824,4.492-8.55,1.726A18.873,18.873,0,0,0,1851.521,1084.65Z" transform="translate(-1766.055 -984.229)" fill="#f2cf9f"/>
      <path id="Path_155" data-name="Path 155" d="M1886.234,1099.323s9.59.347,7.171-4.925-2.766-5.871-4.665-6.3-2.246-1.812-4.145-.433a22.7,22.7,0,0,1-6.564,3.373,3.677,3.677,0,0,0-.867,6.477C1880.1,1099.756,1886.234,1099.323,1886.234,1099.323Z" transform="translate(-1792.566 -1001.321)" fill="#eaa22e"/>
      <path id="Path_156" data-name="Path 156" d="M1855.666,1105.223s-.347.867,1.639,3.2,2.42,4.145,2.333,5.957,3.2,5.706,6.13,5.012,7.518-6.564,11.143-5.619,5.012,0,6.131-2.072l1.127-2.073s-.694,1.379-3.451,1.465-.607.087-.433-3.8a33.474,33.474,0,0,0,.087-4.232s-1.726,6.044-4.145,2.94a15.476,15.476,0,0,0-4.665-4.232,10.633,10.633,0,0,0,.954,2.679c.694,1.292,2.593,3.971-.781,6.911s-6.044,4.579-8.723,1.813-3.885-7.518-3.885-7.518Z" transform="translate(-1774.615 -1014.565)" fill="#deb59b"/>
      <path id="Path_157" data-name="Path 157" d="M1870.918,1096.831a3.706,3.706,0,0,0,.781-3.8l-.694-2.159s3.885,1.986,4.318,4.665.26,3.885-2.419,4.925-3.113,1.466-4.405,3.286-5.957,2.333-7.952-2.593-2.853-7.344-5.186-7.691-.26-3.113,2.506-2.506,6.131-1.465,6.3-2.679,4.232.26,3.46,2.506-2.593,3.026-3.625,2.159-5.619-1.127-3.625,2.766S1866.167,1099.944,1870.918,1096.831Z" transform="translate(-1773.452 -1002.029)" fill="#e0a059"/>
    </g>
  </g>
</svg>
