<svg xmlns="http://www.w3.org/2000/svg" width="1958.317" height="1655.628" viewBox="0 0 1958.317 1655.628">
  <g id="Сгруппировать_147" data-name="Сгруппировать 147" transform="translate(33.155 3.467)">
    <g id="Сгруппировать_145" data-name="Сгруппировать 145">
      <line id="Линия_2" data-name="Линия 2" x1="295" y2="363" transform="translate(-1.5 -1.5)" fill="none" stroke="#bd934b" stroke-width="3"/>
      <path id="Контур_488" data-name="Контур 488" d="M-.033-.521l5.68,901.81" transform="translate(70.365 45.537)" fill="none" stroke="#bd934b" stroke-width="3"/>
      <path id="Контур_494" data-name="Контур 494" d="M277.256,340.815-.742,0" transform="translate(1923.258 338.8) rotate(-180)" fill="none" stroke="#bd934b" stroke-width="3"/>
      <path id="Контур_495" data-name="Контур 495" d="M119.8,31.564-.742,0" transform="translate(1846.819 29.548) rotate(-180)" fill="none" stroke="#bd934b" stroke-width="3"/>
      <path id="Контур_497" data-name="Контур 497" d="M-.033-.521l5.68,919.892" transform="translate(1852.135 947.477) rotate(-180)" fill="none" stroke="#bd934b" stroke-width="3"/>
      <path id="Контур_489" data-name="Контур 489" d="M181.169,0-.742,47.5" transform="translate(70.331 -1.5)" fill="none" stroke="#bd934b" stroke-width="3"/>
    </g>
    <g id="Сгруппировать_146" data-name="Сгруппировать 146">
      <path id="Контур_490" data-name="Контур 490" d="M390.337,479.448-.742,0" transform="translate(-0.758 635.796)" fill="none" stroke="#bd934b" stroke-width="3"/>
      <path id="Контур_491" data-name="Контур 491" d="M894.241,233.633-.742,0" transform="translate(76.153 945.881)" fill="none" stroke="#bd934b" stroke-width="3"/>
      <path id="Контур_492" data-name="Контур 492" d="M1145.1,0-.742,19.941" transform="translate(389.134 1094.741)" fill="none" stroke="#bd934b" stroke-width="3"/>
      <path id="Контур_493" data-name="Контур 493" d="M882.53-184.985-.742,47.5" transform="translate(1852.169 994.514) rotate(-180)" fill="none" stroke="#bd934b" stroke-width="3"/>
      <path id="Контур_498" data-name="Контур 498" d="M390.844-100.767,0,363" transform="translate(1924 994.514) rotate(-180)" fill="none" stroke="#bd934b" stroke-width="3"/>
      <path id="Контур_499" data-name="Контур 499" d="M1374.509,0-.742,593.956" transform="translate(547.354 693.519)" fill="none" stroke="#bd934b" stroke-width="3"/>
      <path id="Контур_500" data-name="Контур 500" d="M735.471,0-.742,595.938" transform="translate(1186.391 582.768)" fill="none" stroke="#bd934b" stroke-width="3"/>
      <path id="Контур_501" data-name="Контур 501" d="M981.748,0-.742,719.887" transform="translate(542.83 437.474) rotate(49)" fill="none" stroke="#bd934b" stroke-width="3"/>
      <path id="Контур_502" data-name="Контур 502" d="M883.011,40.435-.742,0" transform="translate(-0.975 594.531) rotate(49)" fill="none" stroke="#bd934b" stroke-width="3"/>
    </g>
  </g>
</svg>
