<svg xmlns="http://www.w3.org/2000/svg" width="344.547" height="296.58" viewBox="0 0 344.547 296.58"><g transform="matrix(0.602, -0.799, 0.799, 0.602, -533.553, 723.657)" opacity="0.9"><g transform="translate(684.6 93.7)"><path d="M3397.119,1346.2s.378,1.434,6.113.733,6.718.959,2.62,1.693.5,5.93,4.981,6.027,18.944,2.232,20.346,3.688,1.779,2.7-4.1.528-5.7-.528.151,2.458,9.24,7.537,1.962,3.72-13.338-7.008-13.338-7.008,1.208.841,3.181,4.356.312,4.5-3.062.14-7.472-4.237-10.469-7.364-10.307-5.316-10.307-5.316Z" transform="translate(-3102.94 -1211.154)" fill="#cfc7b0"/><path d="M3340.68,1434.075s7.612,7.094,11.634,10.243,8.874,5.283,1.056-1.812a90.86,90.86,0,0,0-14.07-10.707Z" transform="translate(-3053.068 -1287.525)" fill="#cfc7b0"/><path d="M3550.183,1577.1a33.968,33.968,0,0,1,12.108,6.987c5.812,5.229,4.5,9.693.248,7.558l-4.248-2.124,4.173,5.391s-3.461-.679-9.876-6.124-6.987-7.7-6.987-7.7Z" transform="translate(-3237.125 -1417.158)" fill="#791b18"/><path d="M3549.6,1588.685a13.95,13.95,0,0,0,7.138,10.566c6.663,3.612,7.688,3.633,7.688,3.633s-7.246-5.046-8.388-8.949,2.717-3.008,7.138.356a42.73,42.73,0,0,0,7.256,4.636s-5.563-7.666-12.432-11.073C3551.121,1584.426,3549.6,1588.685,3549.6,1588.685Z" transform="translate(-3240.693 -1425.563)" fill="#6e1913"/><path d="M3457.045,1506.681s2.566,4.345,5,5.208,5.672,2.361,1.973,3.31a15.835,15.835,0,0,0-5.984,2.943s7.084,3.008,9.014-1.445,3.806-6.253,7.278-6.178a28.323,28.323,0,0,0,4.5-.108s-8.723-2.631-8.69-4.464-3.591-4.162-5.628-4.205l-2.038-.043s3.051.679,3.612,3.138-4.97,3.17-7.17,1.283l-2.211-1.887Z" transform="translate(-3157.81 -1349.888)" fill="#9f764b"/><path d="M2959.782,1500.722s-2.005,8.227-5.747,11.213l-3.741,2.987s3.461-4.528,3.526-7.58l.064-3.062s-5.995,8.755-9.445,12.367l-3.439,3.6s.582-13.467,2.6-22.308S2959.782,1500.722,2959.782,1500.722Z" transform="translate(-2697.713 -1343.573)" fill="#583121"/><path d="M3228.825,1874.191s-.593-1.035-5.692,8.863a97.689,97.689,0,0,0-7.332,18.836s1.272-2.426,7.72-8.011,6.685-7.418,7.009-13.337.366-7.752.366-7.752,2.351-5.262,3.623,2.318,4.8,15.009,1.25,18.61-8.539,8.194-8.658,13.7l-.119,5.51s-1.38-2.275,4.172-4.2,5.866-7.235,6.577-12.119l.712-4.884a30.5,30.5,0,0,1,.8,10.631,24.789,24.789,0,0,0,3.773,14.782c1.779,2.7-.129,6.534-.129,6.534s5.251-7.245,3.936-12.378-4.83-13.37-6.178-17.079a78.6,78.6,0,0,1-2.47-9.035s4.68.916,4.206,4.173,4.712,9.283,12.68,9.046,9.855-2.652,9.855-2.652-2.922,3.2-8.755-1.2-8.669-5.283-10.7-5.941a13.866,13.866,0,0,1-8.819-7.936c-2.135-5.359-5.046-12.971-5.046-12.971S3234.173,1872.056,3228.825,1874.191Z" transform="translate(-2942.884 -1676.426)" fill="#656842"/><path d="M3154.168,1691.5s4.173,5.391,9.1,4.27,17.639-3.925,21.844.248l4.2,4.173s-3.536-6.814-9.758-2.038-11.429,9.768-19.02,1.649-8-7.925-8-7.925.323,14.092,5.585,16.249,8.518,2.631,11.45,9.014,8.324,12.421,12.227,11.278l3.9-1.143s-1.121,4.874-8.83,2.264-11.569-3.5-13.866-10.7a21.549,21.549,0,0,0-7.137-10.567l-3.44-11.5s-3.289.949-3.612,7.073-3.267,10.146-8.453,13.715-9.467,3.483-9.467,3.483a8.252,8.252,0,0,0,8.108-6.976c1.369-7.116,4.323-11.547,8.054-14.329s4.1-10.739,4.1-10.739Z" transform="translate(-2867.138 -1516.993)" fill="#767b3d"/><path d="M3123.4,1542.9s-5.413,4.787-5.089,9.089-1.24,10.793-4.172,14.416-4.615,6.027,2.415,1.477,9.337-6.954,8.507-16.572.949-6.512.938-5.9,4.216,3.353,7.634,6.286,5.639,4,12.141,5.154,7.224-3.935,7.224-3.935-.927,5.294-6.544.474-16.281-12.788-16.281-12.788Z" transform="translate(-2849.922 -1384.594)" fill="#a29f64"/><path d="M3238.021,1558.5s5.283,1.337,7.386,8.119,7.537,10.567,9.553,11.839l2.016,1.272-1.261,1.811-7.634-6.081s4,13.769,5.4,15.224a38.282,38.282,0,0,0,3.612,3.137l-.647,1.822-3.2-3.127s3.968,15.4,7,17.295l3.019,1.9-1.057,1.811-3.407-3.342,2.416,11.483-1.445.787-1.509-5.952-2.523,3.418-1.391-1.865s4.065.895,1.412-9.359-2.792-13.122-2.792-13.122l-3.547,3.6-.8-.83s4.744-2.555,2.792-6.48a71.342,71.342,0,0,1-3.677-9.876l-4.744,2.35-.388-1.024,3.321-2.793s2.739-4.032-2.825-11.7C3237.558,1561.142,3238.021,1558.5,3238.021,1558.5Z" transform="translate(-2962.701 -1400.564)" fill="#5a5f40"/><path d="M3307.719,854.614s12.292-1.79,21.748,4.938,12.086,8.011,12.086,8.011L3301.8,864.3l5.283-8.874" transform="translate(-3019.612 -772.379)" fill="#a55f63"/><path d="M3243.786,897.3A82.048,82.048,0,0,1,3258,901.268c9.122,3.256,12.777,4.14,12.777,4.14s-21.014,9.165-28.335,7.386l-7.311-1.779s3.612,3.342,3.515,7.623-16.852-4.841-15.149-8.27S3243.786,897.3,3243.786,897.3Z" transform="translate(-2949.64 -810.655)" fill="#a0823d"/><path d="M3374.682,1012.015s1.3-3.849,7.871-5.553a101.127,101.127,0,0,0,10.071-3.062s-2.167,6.286-8.13,8-6.771,1.7-6.771,1.7,5.38,6.232,10.362,2.458,10.318-5.1,13.542-2.987l3.224,2.113s.248-2.038-4.938,1.941a17.925,17.925,0,0,1-10.9,3.655s7.181,8.518,11.72,5.758,6.016-4.776,9.521-5.93l3.493-1.154a8.277,8.277,0,0,1-3.278,10.351c-2.7,1.779-7.979.852-7.979.852s2.566,4.345,6.48,2.793,4.949-2.146,8.615-1.661l3.666.485s1.477,7.386-6.049,6.21-9.143-2.232-9.143-2.232,4.593,5.2,2.437,10.469l-2.146,5.262s-6.631-5.035-4.076-10.3-2.027-10.664-2.027-10.664-2.792,6.685-2.631,8.723l.162,2.049s-7.472-3.828-4.324-8.259,5.208-5.2,5.208-5.2l-10.89-6.556s5.272,1.952,3.31,8.033l-1.962,6.081s-7.192-7.709-5.456-12.572l1.736-4.863-8.292-3.849s3.418,2.728,1.865,8.82l-1.574,6.081s-9.359-11.623-9.132-12.648S3374.682,1012.015,3374.682,1012.015Z" transform="translate(-3078.908 -905.315)" fill="#7d8e5d"/><path d="M3269.633,1014.9s8.6,8.345,13.359,5.995l4.744-2.35s-6.157,1.3-1.121,4.874,8.076,4.453,10.146,3.073l2.07-1.391s-7.181,1.693-1.337,5.488,9.035,7.332,11.494,6.976l2.458-.356s-4.367,3.8-.927,5.5a18.817,18.817,0,0,0,7.73,1.585s-4.108,1.348-5.574,3.148a34.246,34.246,0,0,0-2.1,2.814s-1.1-6.351-3.493-8.647l-2.4-2.3-1.887,2.62s2.922-3.2-3.127-6.8l-6.048-3.6-.259,2.652s.679-3.051-3.343-5.995a14.422,14.422,0,0,0-7.494-3.008l-.064,3.062s.69-3.871-5.585-6.448-14.168-6.415-14.168-6.415Z" transform="translate(-2984.727 -915.575)" fill="#5b4a38"/><path d="M3234.8,315.932s-3.418-5.121-2.555-9.855l.863-4.733s6.534,2.739,6.253,8.863-3.8,5.9-3.8,5.9,3.267,4.82,5.693-1.111,2.027-9.456,4.086-12.475l2.06-3.019s7.893,3.536,3.645,8.96-4.874,6.027-4.874,6.027,6.9-.474,9.585,3.105l2.685,3.58s-1.768,3.946-8.765,1.509-6.006-5.941-6.006-5.941l-8.184,3.2-.539-3.386" transform="translate(-2957.431 -277.31)" fill="#9b9a55"/><path d="M3214.236,405.528s3.828.075,4.194-2.976l.367-3.051s2.588.97,2.933-1.315l.355-2.286s1.024,2.318-1.488,5.024-.679,3.051-.679,3.051,6.361-3.849,7.008-5.671l.646-1.822.625,6.9s-4.6.216-6.146,1.251l-1.553,1.035s4.292-.216,5.93,1.962-4.679,4.043-6.167,1.865-4.237-2.232-5.035-1.024-1.628-2.48-1.628-2.48Z" transform="translate(-2940.921 -363.317)" fill="#8a7560"/><path d="M3369,593.321s.755.323,2.221-3.472l1.456-3.8s1.671.5,1.014,2.933l-.658,2.437s2.793-1.93,6.211-4.313,4.172-1.6.873,2.318-2.739,6.372,6.3-.787,12.658-12.3,12.658-12.3,5.7-1.563-1.488,5.326a91.77,91.77,0,0,1-11.224,9.574s6.34,4.27,12.486-4.032,7.2-7.666,4.033-2.523-.863,4.733,1.154,3.4,2.113,1.423-2.361,3.321-12.184,4.194-12.184,4.194,7.526-.916,9.65-.108,2.049,4.787-4.809,3.116-14.491-2.75-17.273-1.585-5.7,1.876-.065,3.364,12.184,3.159,3.763,3.288-17.64,1.477-17.941,1.014S3369,593.321,3369,593.321Z" transform="translate(-3074.033 -524.165)" fill="#5d382c"/><path d="M3549.592,628.093a2.647,2.647,0,1,1-2.555-2.2A2.4,2.4,0,0,1,3549.592,628.093Z" transform="translate(-3236.049 -568.511)" fill="#493d37"/><path d="M3509.231,640.112a.969.969,0,0,1-.938.981,1,1,0,1,1,.938-.981Z" transform="translate(-3203.041 -580.293)" fill="#493d37"/><path d="M3635.061,586.16a1.568,1.568,0,1,1-1.509-1.262A1.406,1.406,0,0,1,3635.061,586.16Z" transform="translate(-3314.208 -531.937)" fill="#493d37"/><path d="M3732.272,767.773a1.694,1.694,0,1,1-1.65-1.876A1.762,1.762,0,0,1,3732.272,767.773Z" transform="translate(-3400.658 -693.419)" fill="#493d37"/><path d="M3598.411,803.162a1.673,1.673,0,0,1-1.79,1.5,1.654,1.654,0,0,1-1.725-1.563,1.672,1.672,0,0,1,1.79-1.5A1.654,1.654,0,0,1,3598.411,803.162Z" transform="translate(-3281.105 -725.272)" fill="#493d37"/><path d="M3563.088,808.64c-.021,1.229-.625,2.21-1.347,2.189s-1.283-1.024-1.251-2.243.625-2.21,1.348-2.189S3563.109,807.422,3563.088,808.64Z" transform="translate(-3250.407 -729.553)" fill="#493d37"/><path d="M2205.236,1026.314s8.572.323,11.5,6.362l2.943,6.038s-11.31-1.154-13.823-5.488l-2.512-4.334s.011,7.041-.054,10.1-2.275,6.383,3.677,7.58,7.073,5.963,7.8,8.281l.722,2.307s-6.146,1.251-8.971-3.4l-2.814-4.647,1.391,6.922s5.046,7.763-2.706,12.507l-7.752,4.744s-3.86-5.9,2.523-10.825,7.9-4.582,6.469-9.208-1.154-11.052-1.154-11.052-2.857,4.69-8.367,4.572l-5.51-.108s1.348-6.1,7.2-7.666,8.324-2.437,7.062-8.281-1.078-7.224-1.078-7.224Z" transform="translate(-2026.437 -923.248)" fill="#b1b377"/><path d="M1576.21,1295.1s-.183.054-.593.2a64.755,64.755,0,0,0-6.987,3.31c-5.574,2.943-10.609,9.434-2.879,5.758s8.831-4.723,8.831-4.723a118.913,118.913,0,0,1-8.033,11.019c-3.138,3.461-3.7,8.809-3.731,9.876s-1.4,1.046,3.267-2.685,7.526-8.421,8.194-11.159l.668-2.739a30.959,30.959,0,0,1,.151,7.655c-.517,3.051,5.833,6.556,4.334-2.512a152.264,152.264,0,0,1-1.822-15.5l-1.6,1.553" transform="translate(-1467.214 -1164.225)" fill="#b29c65"/><path d="M1763.651,1134.8s1.65,1.412,6.254,1.359,6.836,2.588,8.938,4.927l2.092,2.34s-10.61,1.93-14.782-3.526l-4.173-5.445s1.822,8.151,3.019,9.4l1.2,1.251-2.415-1.887s1.995,7.084-.55,11.936-3.644,5.9-3.644,5.9-2.167-6.48.065-10.566,4.054-3.59,2.221-11.289l-1.833-7.7Z" transform="translate(-1642.838 -1019.603)" fill="#ae9a71"/><path d="M1615.165,1096.974a4.555,4.555,0,0,0-.151.679,5.4,5.4,0,0,0,2.318,5.65l3.472,2.21s-4.561-1.477-6.372-3.041l-1.811-1.563s6.534,9.78,5.2,15.268l-1.337,5.488s.722-5.2-.129-8.583l-.852-3.386s-.173,1.067-2.049,2.566l-1.865,1.488s3.407-2.07,1.078-7.946-2.146-7.246-2.146-7.246-5.477,13.208-6.038,17.952a96.2,96.2,0,0,0-.518,10.254l-1.294-4.313a10.052,10.052,0,0,1-3.936,5.122l-3.267,2.383s5.6-4.022,5.995-8.3l.4-4.281-5.294,4.334s4.82-3.418,5.952-6.62l1.132-3.192s-6.933,1.844-9.736,4.388l-2.814,2.545s1.768-4.1,7.332-6.739,6.07-4.927,6.07-4.927l-4.787,1.9a12.224,12.224,0,0,0,7.019-6.135,61.237,61.237,0,0,0,3.72-9.725Z" transform="translate(-1493.36 -985.433)" fill="#967b69"/><path d="M2241.788,1043.1s1.488,9.445-1.013,12.022-7.774,5.553-7.774,5.553,4.744-.054,6.62-1.563l1.865-1.51s-.334,8.949.668,12.205,1.219,7.59-.345,9.251l-1.563,1.66s6.275.28,5.348-6.987-1.8-9.456-1.8-9.456,5.866,5.219,6.329,5.229-7.882-3.871-6.933-12.8l.949-8.938s1.413-1.52,4.582.561l3.17,2.07s-6.469-5.531-7.052-7.246C2244.268,1041.464,2241.788,1043.1,2241.788,1043.1Z" transform="translate(-2066.05 -940.102)" fill="#896e5f"/><path d="M1882.668,248.307c.022-1.067-3.914-10.653-11.6-9.122s-12.119,8.486-18.793,5.122l-6.674-3.353s5.111-2.652,8.927-2.415,6.5-3.386,6.5-3.386-6.049-3.957-8.831-9.984-2.911-7.569-2.911-7.569,9.283,2.793,11.613,8.971,2.911,7.407,3.375,7.418,6.62-1.855,6.62-1.855,4.324-13.812,13.4-11.213c5.175,1.488,5.769,2.717,5.769,2.717a10.813,10.813,0,0,0-9.726,3.785c-3.925,4.82-3.644,6.049-8.733,7.483a52.742,52.742,0,0,1-6.308,1.553s4.992,2.857,10.221,2.049,3.321-5.143,8.572-7.019l5.251-1.887s-6.836,4.453-6.458,8.906A64.07,64.07,0,0,1,1882.668,248.307Z" transform="translate(-1720.42 -204.241)" fill="#d1ad98"/><path d="M1974.985,335.329a10.429,10.429,0,0,0-5.639,1.315c-2.685,1.574-7.4,2.3-9.456-1.93s.345-6.631,3.03-8.205,9.542-2.156,10.469,2.458.8,6.038,2.329,6.178S1974.985,335.329,1974.985,335.329Z" transform="translate(-1821.696 -300.384)" fill="#f2b041"/><path d="M2052.844,362.459s-.959-3.084-.011-4.291,4.421-1.24,3.849,1.4,2.264,4.13,2.264,4.13S2052.791,365.317,2052.844,362.459Z" transform="translate(-1904.936 -328.949)" fill="#c27535"/><path d="M2012.95,396.785s4.194-5.423,1.078-7.634-6.911-1.671-8.388,1.057-2.038,4.863-4.776,4.086-7.062.873-7.526,3.72.259,7.256,3.31,7.828,7.451.259,7.9-1.876,1.563-1.607,1.531-.173.539,3.386,3.461.679C2012.432,401.777,2012.95,396.785,2012.95,396.785Z" transform="translate(-1852.114 -356.071)" fill="#e1b561"/><path d="M2051.092,430.612s.054-.216.108-.539c.227-1.262.528-4.173-1.779-2.76-2.89,1.779-5.941.8-4.054-1.208l1.876-2.005s-4.13,2.156-4.464,3.688-1.919-1.262-4.086.022-2.8,2.394-.787,3.45,3.03,1.391,1.865,3.5l-1.164,2.124s3.472-.237,4.345-2.771,2.124,1.067,2.523,1.477-1.65.582.906.733S2051.092,430.612,2051.092,430.612Z" transform="translate(-1890.902 -388.476)" fill="#e6a13c"/><path d="M1183.727,713.081s-.679-1.747-4.734-3.364-7.644-.873-4.1.528a28.583,28.583,0,0,1,6.858,4.227s-4.593-.1-6.933-.248-4.733,1.542,1.283,2.275,7.332,1.175,7.019,1.272-7.763,5.154-14.739,1.531-18.534-7.526-18.534-7.526.054,2.243,7.159,4.636,8.6,3.849,8.6,3.849a26.971,26.971,0,0,0-12.259.356,56.642,56.642,0,0,1-11.278,2.221s.151,2.458,4.162,1.412-.841,1.111-4.949,2.146-5.6,3.871-.248,2.135,13.531-7.785,20.033-5.919,8.906,3.655,10.566,2.458l1.661-1.186a5.552,5.552,0,0,1-4.669,3.58l-3.687.431a6.7,6.7,0,0,0,5.952,3.493c4.388.086,28.2-.852,25.489-8.054S1183.727,713.081,1183.727,713.081Z" transform="translate(-1088.747 -642.48)" fill="#e6d7b6"/><path d="M1552.761,957.964c-.162.453-7.839,1.218-12.917,10s-3.828,14.933-2.868,20.313l.96,5.38s2.4-5.154,10.329-10.815,9.8-7.3,10.178-18.319l.377-11.019Z" transform="translate(-1444.293 -860.796)" fill="#c99c97"/><path d="M1596.815,984.61s-8.733-.022-11.105,11.257-1.682,14.513-1.682,14.513,12.734-1.272,15.6-14.071L1602.5,983.5Z" transform="translate(-1486.967 -887.561)" fill="#bdaa78"/><path d="M1615.356,996.447s-7.267,10.567-10.912,16.777l-3.644,6.2s3.461-11.871,6.933-16.853S1614.817,992.76,1615.356,996.447Z" transform="translate(-1502.015 -897.953)" fill="#b39953"/><path d="M1553.459,662.6s-4.345,2.512-7.138,4.6-.334,8.723-.334,8.723,9.035.032,11.063-1.768S1553.459,662.6,1553.459,662.6Z" transform="translate(-1452.215 -601.261)" fill="#b4b770"/><path d="M743.308,644.245s-9.219,1.445-7.44,4.14,1.854,9.025-2.685,11.181l-4.539,2.156s-1.553-3.914,1-8.96l2.555-5.057s-10.674,2.846-9.758,7.558.819,9.618-2.275,11.591l-3.105,1.973s-2.717-6.189.248-11.235l2.965-5.046h0l-8.5,5.952s-.841,1.413.108,4.7-.173,8.162-2.652,9.747l-2.48,1.585s-2.911-7.407-1.208-10.642l1.7-3.235-6.221,4.776s-1.262,2.016.927,4.712,1.272,7.58-2.049,10.167L696.59,682.9s-5.251-2.965-1.24-9.219l4.011-6.243s-6.167,1.919-10.027,1.218-4.41-3.763-4.572-5.812L684.6,660.8s1.4,1.251,8.938,2.426,8.8-.636,8.8-.636-7.569.863-8.475-5.078a61.251,61.251,0,0,1-.873-7.364,12.042,12.042,0,0,1,8.281,4.658c3.181,4.356,7.03,5.456,10.987,1.661l3.957-3.8s-8.55-1.2-9.089-5.089l-.528-3.892s7.386-1.887,10.976,2.264,1.1,6.146,1.1,6.146l9.672-3.882s-5.682-1.747-7.019-6.275l-1.337-4.518s3.752-3.6,9.564,1.833,1.229,9.822,15.418,4.809" transform="translate(-684.6 -577.752)" fill="#8f9973"/><path d="M1270.19,554.654s-15.936.485-18.028,2.7-4.032,7.267-7.946,8.82l-3.914,1.553s-.658-7.569,3.267-10.146L1247.5,555s-8.615,2.07-12.087,1.693-6.146,1.2-7.882-3.935l-1.736-5.143s6.351-1.089,10.965,3.084,8.054,5.682,12.356,4.744a31.867,31.867,0,0,1,6.35-.895s-6.318-.539-5.585-6.243l.733-5.7s7.343.151,8.259,5.477S1255.872,555.582,1270.19,554.654Z" transform="translate(-1167.448 -494.199)" fill="#b4b770"/><path d="M841.021,624.929s-17.586-1.132-21.629,1.7-4.043,2.825-4.043,2.825l3.148-4.227s-4.421-1.014-11.979,1.6-18.48,4.981-18.48,4.981l-5.79,5.855,2.07-4.1-10.653,4.377s-1.617,3.946-1.941,4.863.388-4.13.388-4.13l-9.618,5.779-.895,6.264-.809-5.38-6.847,5.52-1.671,6.857s.593-6.264-3.386-6.653a20.976,20.976,0,0,1-5.488-1.035s8.755-1.2,11.839-2.512-1.143-4.162-1.143-4.162-1.908,3.634,7.062-.927,5.413-9.844,5.413-9.844,2.264,1.423,4.227,2.847-.043,2.146,6.3-.787,2.89-6.674,2.89-6.674,2.5,4.8,6.836,2.9,18.2-6.361,18.2-6.361l-2.512-4.345s2.685,3.267,5.919,2.728,14.567-.776,15.181-.755,3.062.065,3.062.065l-3.9-3.6a12.759,12.759,0,0,0,8.96,3.709C837.56,622.406,847.868,620.023,841.021,624.929Z" transform="translate(-737.06 -562.005)" fill="#7d6e62"/><path d="M1268.8,404.881s-10.5-3.127-10.965-3.138-3.763,4.367-5.165,5.4-4.561-1.477-.517-4.453-1.887-4.938-3.569-5.434-3.2-.83-3.2-.83l-2.987,3.612s-.862,4.884-4.4,5.423-4.237-2.7-.043-5.51,4.539-4.658,4.539-4.658l-7.494-.464a11.258,11.258,0,0,0-1.466,4.259c-.032,1.833-1.132,2.89-3.116,2.846s-4.226-3-.356-4.906,3.58-2.987,3.58-2.987-5.8-.733-8.453,1.208-8.927,2.113-8.723-.334,1.639-5.477,6.674-4.3,7.041.453,7.041.453-5.768-2.717-6.006-5.639,4.97-3.267,6.728.291,1.121,5.078,6.76,6.264,14.416,6.426,18.685,7.127S1268.8,404.881,1268.8,404.881Z" transform="translate(-1159.11 -351.941)" fill="#c0b0a5"/><path d="M1425.869,403.825s-9.111,3.8-9.769,5.617-2.976-4.345,1.812-6.243,5.413-2.642-.065-4.291-14.75-5.359-20.367-7.461a35.062,35.062,0,0,0-8.68-2.318l8.1,1.089s-4.065-3.45-4.14-7.44l-.076-3.979a11.311,11.311,0,0,1,5.542,6.243,14.189,14.189,0,0,0,9.316,8.917l4.41,1.466s-6.469-5.5-6.4-9.014l.075-3.526s3.213-.086,6.469,5.8,6.588,7.332,6.588,7.332-1.736-4.787-1.251-6.458,7.774,1.844,9.855,4.949-1.121,9.93-1.121,9.93Z" transform="translate(-1312.872 -348.06)" fill="#d7cbbe"/><path d="M1662.558,268.52s-9.467-8.777-7.8-15.634.248-11.936,3.871-16.766,8.636-10.545,7.127-3.838-.722,12.852,4.69,17.553,13.823,13.154,14.858,15.009-21.985,4.291-21.985,4.291" transform="translate(-1549.983 -214.61)" fill="#c17e69"/><path d="M1703.883,355.232s-.108-1.995-9.769-9.24-14.2-9.477-14.319-11.472a5.439,5.439,0,0,0-.561-2.62s.442,8.13-2.4,12.658.021,14.092,5.337,16.195S1703.883,355.232,1703.883,355.232Z" transform="translate(-1568.848 -306.217)" fill="#debc5b"/><path d="M1713.262,367.8s-10.383-11.569-9.046-21.629l.183-1.369s1.046,8.906,5.973,14.825,6.124,7.634,5.962,8.087S1713.262,367.8,1713.262,367.8Z" transform="translate(-1594.175 -317.726)" fill="#c19448"/><path d="M1145.9,1292.817a28.854,28.854,0,0,0,4.076,10.34c3.267,4.97,5.973,7.321,6.545,9.326l.572,2.005a7.37,7.37,0,0,1,4.313-1.445c2.76-.1,6.005-1.714,6.89-7.515S1156.8,1291.2,1156.8,1291.2l-10.3,1.93Z" transform="translate(-1096.162 -1162.084)" fill="#d99a96"/><path d="M1136.75,1122.9s1.941,2.491-3.353,6.825-8.033,10.556-3.968,14.006,4.863,2.092,5.865,5.175,1.574,5.24,5.111,4.852,4.464-.83,3.321,2.523.453,7.666,4.528,3.31,5.693-16.119,4.96-17.974S1136.75,1122.9,1136.75,1122.9Z" transform="translate(-1079.723 -1011.931)" fill="#f7d2cb"/><path d="M1233.226,1102.872s-4.669,3.58-2.253,5.165,7.375,6.426,1.315,10.437-8.076,5.2-9.585,4.4-3.4,1.467-2.5,2.394a2.621,2.621,0,0,0,1.66.949s-5.661-.119-11.914-9.132-8.184-19.311-2.976-19.2,2.642-1.941.668-2.9-3.547-6.049-.485-5.984,4.313-1.445,6.631-2.318,9.79.356,12.626,4.087C1229.269,1094.516,1233.226,1102.872,1233.226,1102.872Z" transform="translate(-1147.972 -979.374)" fill="#f7e4d4"/><path d="M1224.006,1067.755a6.04,6.04,0,0,0-5.391-6.081c-5.5-.722-7.957-.474-9.467-1.574l-1.51-1.1s.669,4.6,2.944,5.574l2.275.97s-4.874-1.477-7.278-3.515-3.17-2.361-5.024-1.326l-1.854,1.035a4.839,4.839,0,0,0,5.121,4.086c4.593-.054,14.61-2.911,18.761,3.752s3.709,13.09,7.3,9.8a59.481,59.481,0,0,1,7.31-5.671s-6.62,1.855-9.337-.194.658-2.135,1.154-3.806l.5-1.671a9.769,9.769,0,0,1-3.7,1.154A1.855,1.855,0,0,1,1224.006,1067.755Z" transform="translate(-1143.269 -954.92)" fill="#b9a379"/><path d="M1443.281,980.95l-21.629,16.712s-6.922,1.693,1.154-4.108a183.318,183.318,0,0,0,16.68-14.049S1444.413,978.222,1443.281,980.95Z" transform="translate(-1339.719 -883.728)" fill="#b9b496"/><path d="M1102.74,953.518a13.373,13.373,0,0,0-13.057,1.725,8.993,8.993,0,0,0-3.483,5.445l2.641-1.941a13.914,13.914,0,0,0-1.941,4.863c-.194,2.146-1.6,3.03,5.607,2.717s11.084-2.534,12.087-6.642A5.819,5.819,0,0,0,1102.74,953.518Z" transform="translate(-1042.899 -859.951)" fill="#511c1a"/><path d="M1250.294,881.307s-12.464,2.652-16.13,2.577-5.423-4.248-4.313-6.21l1.111-1.973s-8.389,5.5-5.715,9.682,2.491,5.564,5.219,6.7l2.739,1.132s-5.025-1.477,2.545-4.69,10.815-4.367,10.815-4.367Z" transform="translate(-1166.484 -791.384)" fill="#ad945a"/><path d="M1316.03,930.429s-6.156,1.251-12.453,2.189-7.677,1.067-7.677,1.067,12.529-5.866,17.887-6.06S1316.03,930.429,1316.03,930.429Z" transform="translate(-1229.989 -837.703)" fill="#bfb6a7"/><path d="M1441.55,835.5a68.573,68.573,0,0,0-9.531,1.542c-3.289.949-15.418,5.2-15.418,5.2s7.407,7,11.364,8.6a28.54,28.54,0,0,0,17.726,2.1C1454.283,851.382,1441.032,835.586,1441.55,835.5Z" transform="translate(-1337.675 -755.518)" fill="#a57f48"/><path d="M1410.052,827.242s-4.647-2.34-11.871,1.488-10.016,5.413-12.248,4.755l-2.232-.658s10.62,9.715,15.806,10.739l5.186,1.024a71.581,71.581,0,0,1-10.8-6.038l-4.733-3.364a57.848,57.848,0,0,1,12.043-4.658,36.336,36.336,0,0,1,11.763-1.294Z" transform="translate(-1308.323 -747.519)" fill="#aa8e5c"/><path d="M2484.307,127.416s-4.076-5.391-4.238-7.235,5.1-4.485,9.294-.011,3.148,5.779,2.717,7.105,5.823-.183,2.351-5.057-5.952-8.5-5.9-11.354a24.666,24.666,0,0,0-.032-3.267,14.046,14.046,0,0,1,7.246,4.949l2.976,3.946s1.963-6.189-2.167-8.928a10.049,10.049,0,0,1-4.69-10.308l.582-3.558s8.227.237,6.75,9.229a14.609,14.609,0,0,0-.27,3.062s4.442-2.458,6.426-4.766,6.167-1.811,8.043.981-2.954,4.841-6.976,6.491a13.193,13.193,0,0,0-6.038,5.693s5.176-8.572,11.386-2.415,5.8,5.941,5.8,5.941a88.84,88.84,0,0,1-13.154-.582,37.8,37.8,0,0,0-6.318-.744l-1.693,7.925-1.941,4.863s2.534-4.13,8.734-2.879a24.642,24.642,0,0,1,10.512,5.122l-3.127,2.9s-8.41,1.768-12.065.981C2494.884,134.683,2484.307,127.416,2484.307,127.416Z" transform="translate(-2286.477 -93.7)" fill="#a8a179"/><path d="M2552.123,221.19s.507.011-1.65-4.011-3.073-4.658-3.073-4.658a22.866,22.866,0,0,1,4.744,2.545c1.51,1.262,3.6-1.359,3.882-5.121a37.37,37.37,0,0,0-.259-7.353l1.693,2.286s2.48-6.178,1.111-9.477l-1.358-3.3a18.435,18.435,0,0,1,2.8,2.911c.5.927,1.542-.28,3.5-1.563l1.962-1.283a26.067,26.067,0,0,0-4.9,9.5,142.079,142.079,0,0,1-4.9,14.6,2.382,2.382,0,0,0,3.73,2.221c3.095-1.574,3.5-1.563,3.5-1.563l-8.82,6.965Z" transform="translate(-2346.552 -181.49)" fill="#715341"/><path d="M2288.941,159.659s-1.283-2.07-2.512-2.092l-1.229-.022s2.081-1.693,3.084-.852,1.854-.571,1.456-1.4l-.388-.83a3.384,3.384,0,0,1,1.876,3.105c-.043,2.243.108,4.5.108,4.5s4.777,1.121,3.407-6.976-3.019-17.111-3.019-17.111,4.8,5.208,5.165,11.947,1.089,6.556,1.876,3.105,2.005-8.227.851-11.72-1.347-4.108-1.347-4.108,3.644,1.7,3.979,5.294l.334,3.58s-.119-4.183.949-6.308l1.067-2.124a16.019,16.019,0,0,1-.927,10.189c-2.361,5.564-2.415,8.324-2.415,8.324s6.6-8.335,8.054-9.326l1.456-.992s-2.976,5.553-5.833,10.394a28.429,28.429,0,0,1-7.828,8.108S2287.421,164.22,2288.941,159.659Z" transform="translate(-2112.622 -132.51)" fill="#6c483d"/><path d="M2310.661,265.244a2.834,2.834,0,1,1-2.739-2.351A2.57,2.57,0,0,1,2310.661,265.244Z" transform="translate(-2130.374 -244.65)" fill="#3a2b28"/><path d="M2312.385,174.073c-.021.906-1.013,1.617-2.232,1.585s-2.178-.776-2.156-1.682,1.014-1.617,2.232-1.585S2312.407,173.168,2312.385,174.073Z" transform="translate(-2132.961 -163.906)" fill="#3a2b28"/><path d="M2338.893,128.794a2.249,2.249,0,1,1-2.21-2.3A2.251,2.251,0,0,1,2338.893,128.794Z" transform="translate(-2156.514 -122.961)" fill="#3a2b28"/><path d="M2394.769,113.156a1.586,1.586,0,1,1-1.552-1.66A1.6,1.6,0,0,1,2394.769,113.156Z" transform="translate(-2207.549 -109.577)" fill="#3a2b28"/><path d="M2517.69,194.575a2.084,2.084,0,0,1-2.329,1.693c-1.272-.022-2.285-.819-2.264-1.779a2.084,2.084,0,0,1,2.329-1.693C2516.7,192.818,2517.712,193.616,2517.69,194.575Z" transform="translate(-2315.947 -182.111)" fill="#3a2b28"/><path d="M2915.825,1068.211s11.624-6.5,13.758-6.459,12.733-1.11,17.919.065,12.68,1.639,15.03,6.588,5.176,8.841,2.3,14.9-4.992,12-8.194,18.513-6.221,12.119-12.982,12.906-15.979,2.739-21.251-1.661-16.216-15.807-16.108-21S2915.825,1068.211,2915.825,1068.211Z" transform="translate(-2666.748 -956.961)" fill="#84506a"/><path d="M2923.771,1042.848s-5.8,6.62-2.976,10.814,9.251,4.636,3.515,8.033-12.1,7.105-9.823,8.68,2.081,2.8,5.8,8.238-1.186,12.841,8.927,12.9,11.473.7,13.532-2.48,3.72-2.07,7.149-4.906a18.747,18.747,0,0,0,4.7-5.413,7.824,7.824,0,0,1-2.911,7.289c-3.73,2.836-7.191,6.9-14.567,8.281s-11.267,4.2-17.6-.819-17.024-28.529-16.928-33.123,5.671-15.041,4.841-19.5,3.019-5.456,7.084-2.156A22.425,22.425,0,0,0,2923.771,1042.848Z" transform="translate(-2663.448 -935.049)" fill="#71374f"/><path d="M2978.312,1263.577s.82-2.437-1.875-5.553-2.2,2.706-5.585,3.407-1.962,5.93-2.307,7.914,2.135,7.849,6.372,2.739,11.278-4.97,5.359.259-7.742,4.13-9.629,6.232-2.534,4.086-4.474,1.9-8.356,3.968-13.629-.28-14.5-9.639-12.27-6.534,7.008,9.176,8.367,10.124-4.043,2.825-8.4-1.4-8.939-12.281-8.4-15.947,3.094-8.82,8.022-2.588,7.882,11.192,10.167,4.809,8.033-10.556,11.407-11.257,10.027-3.623,11.753-5.736,7.849-1.833,8.841,1.865S2982.2,1260.289,2978.312,1263.577Z" transform="translate(-2689.503 -1125.631)" fill="#532230"/><path d="M3079.936,1029.592s7.321,1.531,11.526,5.6,6.027,4.561-.431,6.113-8.766,1.811-10.254-.518-3.483-2.059-1.552.884-1.715,1.5-2.307.41-3.677.076-4.464,1.283,2.243,2.8,3.925,2.534,6.944-2.307,6.2,3.957-5.962,7.073-7.148,4.906-5.79-9.154-8.443-6.76-11.386,2.523-11.925-1.013,3.116-2.383,7.45-4.744,7.5-7.192,2.124-6.394C3059.267,1036.676,3069.315,1024.783,3079.936,1029.592Z" transform="translate(-2799.429 -927.658)" fill="#5e2a3a"/><path d="M2823.25,1144.726s7.763,2.307,6.006,5.941-1.2,5.79,1,3.547,8.162-2.437,3.623,2.372-7.623,5.812-2.836,11.116,9.046,6.771,9.143,2.491,1.671-6.858.679-10.556-1.391-6.922,3.99-7.731,7.979-.6,8.043-3.817,7.742-3.828,6.07,2.577,2.372,3.72,2.3.2,2.016-8.841,3.569-9.876,3.2.83,7.839,5.984,7.882,11.343,4.3,14.178-1.046,6.1-5.563,9.995-9.413,3.634-6.76,1.089.82-2.437-.41-2.307-1.51-1.261,1.434-2.577,5.79-6.005,2.329-9.143-6.178-4.723-4.852-2.243.032,5.973-5.057,7.558-12.065,5.574-8.4,6.415,7.99,6.448.614,7.515-11.019-.377-15.839-4.313-10.976-2.221-9.186.118-.668,2.739-1.715,1.348-5.812-.582.388,3.224,10.879,7.418,7.354,7.5-16.767-3.871-16.292-11.817,2.016-8.841-1.38-15.041-5.758-10.685-4.712-16.486C2809.945,1136.176,2823.25,1144.726,2823.25,1144.726Z" transform="translate(-2579.66 -1027.158)" fill="#3f1c1d"/><path d="M3096.6,1249.969s5.4,5.467,2.728,8.636-1.531,7.321-.032,9.186l1.488,1.865s-3.429-4.669-.938-6.448.5-1.52,2.426.971,4.033-2.674,7-4.906-.463-7.364,1.25-8.852.658-2.286-1.8-2.027-1.973-.658-.431-1.391-5.326-1.79-7.655.151A25.5,25.5,0,0,1,3096.6,1249.969Z" transform="translate(-2836.536 -1121.802)" fill="#2c1a16"/><path d="M2893.5,1206.026s2.1,9.542,2.793,13.381,1.412,5.844,2.221,3.569,2.178-1.488.873,2.318.14,8.119,1.6,4.172,2.965-2.544,5.208-.194,6.361,3.5,6.361,3.5-8.583-7.375-7.235-13.165-1.563-5.7-2.2-4.485-1.337-2.016-.938-6.609S2893.5,1206.026,2893.5,1206.026Z" transform="translate(-2655.334 -1085.665)" fill="#311b19"/><path d="M3017.659,1014.884s3.633,4.367,3.849,9.111-.345,9.337,2.534,10.771,4.9.41,9.262-3.483,2.286-6.847-1.154-3.4-14.664,5.52-5.833.8,10.254-6.987,10.264-7.45.485-1.067-5.412,2.641-13.1,4.022-5.359-.108,10.545-6.372,12.507-5.1,4.1,1.919,3.353.528,1.876-2.1,3.957,1.3,4.2,4.065,3.2.83-.248-2.609,5.51.27,7.99,6.135,7.99,6.135-.766-7.515-10.157-12.615-12.734-6.232-16.13-4.927-3.72,2.372-6.038,2.944a23.5,23.5,0,0,1-7.052.464C3019.567,1013.547,3015.977,1012.254,3017.659,1014.884Z" transform="translate(-2765.724 -910.934)" fill="#401d1e"/><path d="M2611,985.108s8.237,26.1,9.391,29.6l1.154,3.493-3.86-20.7s7.041,15.257,9.747,22.459,1.477,17.6-2.674,10.771l-4.151-6.825s-2.728,3.418,1.261,7.99,13.974,5.6,9.337-7.364S2622.559,998,2622.559,998s10.006,19.807,11.7,26.987,5.962,19,.884,26.772l-1.057,1.607s11.084-7.677,2.6-27.106l-2.339-5.359s4.722,8.874,10.146,13.068,7.86,4.863,7.86,4.863-12.356-14.545-18.265-25.079a182.355,182.355,0,0,1-9.607-19.4c-.194-.614-4.011-13.359-4.011-13.359Z" transform="translate(-2403.294 -885.331)" fill="#985239"/><path d="M2425.569,995.1s-8.809,11.461-9.79,19.192a18.071,18.071,0,0,0,4.992,15.214l2.2,2.092s-9.941-13.273-1.93-25.36l8.011-12.087s-4.334,12.367-2.189,17.316l2.146,4.949s-1.521-5.542-.6-10.221l.917-4.679a113.678,113.678,0,0,0,3.213,12.518l2.113,6.577s-3.051-10.48-1.908-16.583l1.143-6.1s-.852,11.623.259,17.359,2.491,8.011,2.491,8.011-2.609-12.1-1.434-19.839l1.186-7.731s5.315,19.3,1.9,26.794-9.9,14.5-12.442,9.337l-2.545-5.154s-.356,7.343,3.278,9.251,11.105-4.054,12.9-11.375,2.491-12,2.491-12l11.353,23.926s-9.477-25.51-11.893-37.414L2439,987.2Z" transform="translate(-2228.979 -890.862)" fill="#936353"/><path d="M2647.41,894.4s11.914,1.315,18.383,14.62,12,19.85,3.278,19.214-21.165,1.251-30.406-11.041-10.965-17.683-10.965-17.683Z" transform="translate(-2418.194 -808.068)" fill="#a3685a"/><path d="M2682.218,907.2s9.24,4.787,14.567,13.779,6.318,12.993.841,11.5L2692.137,931a7.776,7.776,0,0,0,3.612,3.138l2.426.97s-5.8,6.62-17.079-3.418a51.861,51.861,0,0,1-14.7-22.513Z" transform="translate(-2452.721 -819.488)" fill="#caaa92"/><path d="M2671.3,930.6s.183.108.5.313a31.264,31.264,0,0,1,10.577,12.162c3.816,8.194-.086,11.8-4.723,6.178l-4.636-5.607s3.2,8.335,9.111,11.364l5.909,3.03s-15.062,2.749-24.1-12.292-2.814-12.313-2.814-12.313Z" transform="translate(-2446.15 -840.365)" fill="#b48c4d"/><path d="M2721.6,965.572s4.787,5.607,7.763,9.661l2.976,4.043s-2.318-6.631-3.191-8.486l-.884-1.854s2.415,1.887,7.536,5.822,5.262,4.55,5.262,4.55-6.426-7.483-11.105-11.256A76.918,76.918,0,0,1,2722.29,961Z" transform="translate(-2501.969 -867.487)" fill="#9a6633"/><path d="M2691.681,334.974s-5.79-1.65-9.1-4.475-7.774-9.2-10.027-11.235l-2.253-2.038s8.3-1.671,13.726,2.728,9.812,14.448,9.812,14.448,3.515.226,1.5-6.092-7.04-7.494-8.819-10.75-3.062-7.418-4.733-8.367l-1.661-.949s11.516-1.6,13.37,5.175,2.965,12.313,2.933,13.542,1.143,4,1.24-.895,2.61-7.914,8.647-11,8.669-4.723,3.461,2.825-4.917,8.324-8.021,10.4-5.747,4.022-5.327,5.865C2696.867,336.009,2691.681,334.974,2691.681,334.974Z" transform="translate(-2456.2 -284.966)" fill="#5a352b"/><path d="M2758.2,341.608s-.733.8-4.647-2.34l-3.914-3.148s3.073-.755,5.2.615l2.113,1.369s-2.739-5.876-6.243-9.219-4.809-4.485-4.809-4.485,10.383,1.639,13.3,8.335,3.914,8.151,3.914,8.151-.151-7.558-1.434-9.833-4.723-3.461-6.3-6.458l-1.574-3s3.256.474,3.86,1.1l.6.625a13.511,13.511,0,0,0-1.617-5.542l-1.477-2.48s7.02,1.369,7.515,11.893l.5,10.523a4.857,4.857,0,0,0,1.812-3.439c.151-2.243.356-7.45,4.378-9.4l4.022-1.962a15.787,15.787,0,0,1-1.995,7.72c-2.113,3.429-5,5-5.434,5.909a50.01,50.01,0,0,0-1.574,7.008C2764.381,344.185,2758.2,341.608,2758.2,341.608Z" transform="translate(-2523.649 -291.407)" fill="#46271e"/><path d="M2883.115,438.347s.766-2.437-.475-6.847l-1.24-4.421,2.167-1.38s.755,2.879,1.111,5.337l.356,2.458,1.057-1.607.97,2.674a21.948,21.948,0,0,0-1.2,3.45C2885.433,439.825,2883.115,438.347,2883.115,438.347Z" transform="translate(-2644.539 -389.903)" fill="#67453e"/><path d="M1963.219,983.209s-7.472,5.973-5.812,14.383,3.838,11.72,3.838,11.72,4.076-9.3,4.615-15.828-1.261-8.4.863-12.238,6.911-8.432,6.911-8.432-1.52,4.464-3.051,9.531-1.9,12.626,2.458,19.246l4.356,6.62s3.709-11.364,2.836-18.933-3.256-10.48-4.2-13.974-3.375-4.561-5.9-.938S1963.219,983.209,1963.219,983.209Z" transform="translate(-1819.958 -877.404)" fill="#59342a"/><path d="M2028.384,901.7s-8.141,8.82-10.448,11.634a55.788,55.788,0,0,0-4.636,7.051l2.232.453,7.343-9.65-.086,4.086,3.925-1.962s-1.585-2.48,1.337-5.283l2.922-2.8s-2.146,4.852,3.234,11.3,7.612,7.095,7.612,7.095a110,110,0,0,0-2.221-11.278C2037.9,905.366,2028.384,901.7,2028.384,901.7Z" transform="translate(-1870.039 -814.581)" fill="#66423f"/><path d="M1606.135,591.362a2.9,2.9,0,0,1-1.067-.561c-3.784-2.588-15.235-13.467-11.041-16.432,4.766-3.375,15.7-8.658,23.99-4.615s8.809-1.251,7.612-2.911,6.113.539,10.049,7.558,7.6,27.721,2.038,29.856-11.418,8.949-8.119,7.386,6.555-.884.55,3.073-5.639,6.211-12.367,5.672-13.8-4.367-14.556-7.041-10.254,2.243-12.658-.054-3.644-1.714-7.094-2.6-7.656-5.057-2.9-7.817,1.9-3.019,2.836-8.723.248-11.839.086-14.092.1-4.9,4.539-2.156" transform="translate(-1482.065 -515.359)" fill="#5e2633"/><path d="M1754.213,723.386s2.954,5.165-3.062,9.736-5,5-.075,3.677,2.372-6.286,7.008-3.332,9.434,7.752,5.337,8.485-4.076-.7-6.814,3.536-7.31,8.022-13.618,7.073-6.458,6.4-2.75,4.636,4.238,2.329,2.34,5.359-3.343,3.407-4.539,2.156-1.844.162-4.323,1.951-9.909-4.9-5.747-8.281,4.183-4.82-.291-5.725-6.685-12.8-5.542-18.286C1723.257,728.874,1741.684,716.593,1754.213,723.386Z" transform="translate(-1610.002 -653.712)" fill="#652743"/><path d="M1606.71,552.378s-3.375-4.561,3.8-6.049a28.326,28.326,0,0,0,12.173-6.081s9.4-.625,12.809,2.922,1.035,9.413-2.458,10.566-2.6-2.706-5.833-4.41-6.976,1.488-9.2.625,2.825,1.693,1.919,5.963-2.469,20.982-3.127,23.214,4.356,6.62,6.8,6.469,10.167,2.253,4.216,3.558-7.192,2.307-14.1.528-13.122,2.793-14.3.323-.949-3.493-5.445-3.58-8.3-3.235-3.159-5.37,3.127-3.2,3.019-7.7-.625-9.4.226-11.224.27-3.256-.917-5.122-.528-4.3,1.315-4.669,11.429.237,11.429.237Z" transform="translate(-1490.9 -492.063)" fill="#512c38"/><path d="M1664.243,532.877s-11.569-3.612-16.852.108-5.467,5.1-11.019,6.976-8.744,8.248-4.043,10.329,5.132,3.634,1.391,6.771-6.933,9.348-2.566,12.96,14.2,9.639,14.955,10.114-.054-4.593-3.192-8.647-6.232-9.779-1.833-15.041,5.143-4.334,4.442.086.6,7.666,3.04,8.486,4.615,6.685,1.693,7.235l-2.922.55s8.151,5.984,10.286,6.189,3.979.237,3.979.237-2.868-2.2-1.844-7.084,1.208-6.717-1.5-8.755.636-8.41,4.938-9.24,5.2.722,9.272,3.558,1.348,1.714,2.566-5.467,1.445-10.847-.787-13.8a28.669,28.669,0,0,0-3.138-3.741s3.968,7.892-.97,10.092-9.984,1.477-14.017,4-4.205,3.278-6.415-.895-8.3-5.682-8.3-5.682,8.539-5.65,10.534-6.06C1653.924,535.723,1664.243,532.877,1664.243,532.877Z" transform="translate(-1527.213 -484.12)" fill="#391c2a"/><path d="M1647.89,539.766s-7.634-1.229-10.3,1.779-4.679,4.043-5.865,2.48-5.984.8-6.642,2.469-1.995-.043,2.415,1.887,6.62,5.8,2.857,10.017a61.752,61.752,0,0,1-4.69,4.96s2.329-1.326.4-4.281.819-9.941-3.159-10.017-8.13,8.259-3.256,9.273l4.885,1.024s-2.652,2.243-4.022,1.909-.356,2.286-2.717,5.607-.69,11.321,4.6,14.34,8.485,4.464,8.485,4.464-5.467,5.251-9.585,4.248-5.79-1.348-5.79-1.348,10.631-3,4.539-4.809-8.27-7.364-10.76-5.585l-2.491,1.79s1.628-4.863,4.518-3.892-.712-2.62,2.286-6.847,4.647-9.855,2.232-11.9-.8-5.682.334-8.874,5-4.8,6.545-5.531a10.468,10.468,0,0,0,4.205-3.278C1628.332,537.836,1639.4,535.615,1647.89,539.766Z" transform="translate(-1507.367 -489.565)" fill="#2e1b24"/><path d="M1796.543,883.1s-6.739.011-8,1.822-3.267,2.685-4.615.981a15.763,15.763,0,0,1-1.639-2.329s-.259,5.2,6.437,7.332,8.227,2.156,8.227,2.156S1790.8,886.96,1796.543,883.1Z" transform="translate(-1663.934 -797.986)" fill="#2e1b24"/><path d="M2807.6,618.9s-2.286-.507-.572,5.2,1.919,10.76,1.089,13.963-.809,9.628,4.162,13.413,8.647,4.011,11.494,7.127,3.784,2.221,7.741,3.526,10.534,1.6,14.771,3.828,5.747-11.062,3.558-16.777C2847.673,643.466,2807.6,618.9,2807.6,618.9Z" transform="translate(-2577.615 -562.266)" fill="#95332f"/><path d="M2896.281,501.689l-2.89,6.523s.9,1.24,6.211-4.011,12.938-10.911,14.265-15.785,3.741-10.491,1.66-13.9a23.541,23.541,0,0,1-3.127-12.011c.086-3.979-2.189-12.906-5.962-15.289s-6.793,2.469-10.761,1.919-6.221-2.577-11.537-4.981-7.191-7.655-10.038-3.267-7.267,10.728-11.99,9.866-8.55-1.1-10.167,2.7,4.744,7.752,4.744,7.752,8.852,9.068,8.453,13.65-3.31,12.184,5.617,17.273S2896.281,501.689,2896.281,501.689Z" transform="translate(-2618.028 -401.944)" fill="#981c30"/><path d="M3074.186,657.331s-7.052-7.041-11.472-8.356-3.569-5.283.906-7.03,21.661-3.073,20.583,4.561S3074.186,657.331,3074.186,657.331Z" transform="translate(-2803.707 -581.63)" fill="#984043"/><path d="M2834.751,496.17s-2.933-6.491-6.394-9.165-8.27-7.526-7.516-14.092-1.8-9.229-5.175-8.992-3.3-3.59-.485-6.286,3.224-7.591,7.849-1.984,8.69,9.219,11.009,8.5,1.984.345,3.633,2.221,1.962,1.261,4.043-2.976-3.332-9.1-3.741-11.569.41-12.7,6.792-10.275,7.828-.755,10.362,2.512,2.534,10.771,5.175,8.841,13,.571,13.8,6.717,1.466,10.448,4.151,14.017,2.027,13.057-1.995,14.815-9.51,8.227-15.548,4.119-4.776-13.273-4.723-16.022,5.294-4.022,3.364-7.44-9.769-1.423-11.117-2.987-5.509-.119-5.854,1.865,4.906,7.148-.194,9.337-11.58,4.356-7.4,9.65,9.337,7.849,7.914,2.307-.927-6.911.506-9.941,4.852-5.111,8.249,1.24,4.022,12.949,2.447,15.063,1.434-2.879,4.324-1.6,6.566,1.057,10.728-.55a67.26,67.26,0,0,0,8.669-4.259s2.664,4.647-3.224,8.054-6.965,3.537-9.316,6.394-4.949,10.006-12.345,4.647-9.963-7.095-12.874-7.008C2836.94,501.421,2834.751,496.17,2834.751,496.17Z" transform="translate(-2583.604 -403.714)" fill="#801a20"/><path d="M2905.92,473.25s2.933,13.693,6.34,19.117,3.353,8.5,9.326,8.313,8.087,1.24,10.2,2.814,6.178-2.318,6.351-3.7,2.62-.561,4.119,1,7.332.916,5.122-3.267-3.084-6.189-3.084-6.189-4.054,3.59-4.291.216,1.456-11.149.27-13.165,5.9-3.86,7.095,4.9,2.307,14.448,6.534,9.779,6.059-11.515,2.663-17.715-5.661-7.623-6.362-10.7-5.466-9.607-6.868-8.561-1.067-.323-2.8-4.96-6.3-6.4-6.793-4.733-.992,3.5-4.313,1.445-9.261,3.332-9.8,7.45-.873,5.186-2.6,7.3-2.771,8.065,6.642,4.884,14.448-2.609,16.647,2.329,3.828,7.731-.561,5.046-8.561-.938-6.124.183,6.113,8.237,1.412,6.006-9.283-10.448-12.69-8.227-10.717,14.631-2.512,10.664,7.623-5.973,11.9,2.081,4.917,14.34,2.609,14.761-5.4-5.628-8.776-5.229-8.206-3.084-9.219-6.006,2.06-10.674-3.494-16.152C2907.268,467.46,2902.955,468.592,2905.92,473.25Z" transform="translate(-2665.555 -407.825)" fill="#691717"/><path d="M3024.084,722.492s4.076-4.82,6.545-5.229.032-1.531,3,3.127,2.254,9.391,4.086,9.736,2.4,2.5,1.585,5.089-.151,7.5-2.146,7.31l-1.984-.194s2.394,2.652,4.313-.981,3.019-5.294,4.366-4.043,1.607-3.644-.377-3.838-2.555-2.351-3.127-4.507-2.232-3.105-2.706-2.663-2.232-3.267-2.458-6.944-1.725-5.24-5.585-4.1S3019.976,720.874,3024.084,722.492Z" transform="translate(-2770.576 -647.912)" fill="#381b15"/><path d="M3019.469,585.767c.334.313,4.1,1.919,6.75-.474s4.076-4.669,7.9-4.582l3.827.076s-5.607-2.717-9.931-1.434C3023.717,580.646,3016.763,583.266,3019.469,585.767Z" transform="translate(-2767.179 -526.681)" fill="#381b15"/><path d="M3235.834,605.2s3.784,1.919,4.8,5,4.205,4.227,6.34,4.27,4.949,5.3,1.315,10.6-3.493,6.049-3.493,6.049a12.338,12.338,0,0,0,6.987-12.108c-.431-9.046-3.558-12.938-3.558-12.938s-.6,7.181-2.976,3.461-3.052-7.871-6.092-9l-3.041-1.132s4.658,4.227,2.06,4.334C3235.565,603.81,3235.834,605.2,3235.834,605.2Z" transform="translate(-2960.751 -544.875)" fill="#381b15"/><path d="M2077.616,368.826s-6.6,3.127-6.61,3.741-1.315-5.747,2.426-8.938,3.7-.949,5.661-7.03,16.249-25.6,26.082-17.025,35.958,28.918,35.808,26.265,1.121-5.078,6.318.539,8.992,9.779,6.06,23.2-3.191,16.27-7.483,16.184-4.561,3.375-4.593,5.014-7.051,5.37-12.324,3.213-12.992,6.264-18.028,2.7-8.766-1-14.275-1.111-9.391.011-11.785-12.906S2077.616,368.826,2077.616,368.826Z" transform="translate(-1921.319 -311.153)" fill="#f9daca"/><path d="M2094.89,379.069s-14.416-3.968-16.108-1.359l-1.682,2.62s9.725-6.34,9.607-10.426-1.413-10.847,6.081-7.634,9.79.41,12.065-.981-.711-5.326,6.491-8.033,12.831-8.518,17.758.367,3.742,16.41,1.833,19.85S2094.89,379.069,2094.89,379.069Z" transform="translate(-1926.959 -321.364)" fill="#e9c4a5"/><path d="M2115.782,489.491s-2.933,3.817-.237,11.429-1.089,13.046-9.381,9.4-9.326-3.461-13.672-.69-10.8-.83-12.378-3.731,1.337,4.518,3.741,6.609-11.968,6.081-16.917-1.574-6.89-12.389-7.99-18.545-3.817-2.933-2.426-1.272,1.919,5.962-2.264.766-5.887-11.763-3.3-18.448,8.043-13.92,16.356-10.685,9.574,1.423,13.747-2.987,6.135-10.491,14.1-10.329,15.58-3.148,21.133,5.337,14,24.583,12.583,33.748-.075,13.478-1.736,15.073-4.949,2.555-5.79-6.243S2115.782,489.491,2115.782,489.491Z" transform="translate(-1902.545 -410.63)" fill="#fbe6e1"/><path d="M2149.122,492.145s10.264,7.558,7.849,12.874-2.717,5.3-5.682.8-2.911.248-10.114.248-7.774-1.995-12.723.809-28.131-10.07-30.028-14.4-4.938-5.467-3.515-7.731-4.388-2.545-4.033,2.674,2.933,13.542,1.208,15.494-7.019-1.369-6.9-6.879.841-3.655,1.7-.884.776-.755.884-5.8,9.769-13.435,14.373-13.79-.032,1.38-2.7-2.814,4.971,4.086,10.146-2.092,11.278-12.324,16.011-11.774,3.256-1.768-3.741,3.138-13.65,8.453-8.345,11.159,14.642,10.566,18.6,11.407C2136.086,485.449,2149.122,492.145,2149.122,492.145Z" transform="translate(-1934.17 -419.43)" fill="#e5aeaa"/><path d="M2235.683,511.518s3.785,1.919,5.111,4.7a19.237,19.237,0,0,0,1.4,2.178c1.531,2.243,2.6,4.647-4.345,6.8-9.251,2.868-15.6,6.566-20.346,6.469s-9.456-1.725-5.726,2.943,3.375,6.965-.927,7.946l-4.313.981s7.515-.615,1.855-8.076-8.82-10.286-9.208-13.974-6.426-7.946-3.558-13.089,6.372-11.968,17.057-10.372,4.151-.679,1.553-1.2-3.181-1.6,3.245-1.315,15.709,3.235,12.227,1.477-2.944-5.725-.011-6.739,2.534-4.086-4.863-2.092-8.184,3.2-10,1.941,5.262-2.8,10.966-4.216,10.232-6.07,18.966,1.466,11.893,9.736,12.853,15.58,1.434,4.927-5.294,4.022-10.793,3.45-8.583,7.634S2235.683,511.518,2235.683,511.518Z" transform="translate(-2032.02 -441.176)" fill="#e7c9ba"/><path d="M2292.385,743s8.237,9.208,1.283,12.281-7.418,3.213-9,6.092-7.03,6.6-14.157,3.073-13.229-4.561-9.359-13.823" transform="translate(-2090.092 -672.992)" fill="#fcdac1"/><path d="M2279.693,572.622s5.175,1.488,4.3-.83,5.111-2.5,4.571,1.164,6.254,8.55,7.429,3.677,4.238-4.97,5.6,3.181,1.768,10.911-.431,13.467,4.949,5.154,6.631-2.318,2.329-16.184-2.944-20.734-9.4-11.99-14.988-15.925-11.267-3.138-13.154-.884,10.5,3.429,15.9,8.593,2.523,4.033-1.725,1.8-5.488-1.035-2.62,1.014-4.475,1.6-10.07-1.736-19.451-7.289-25.371-2.663-8.183,18.362-4.874,20.885,2.857,2.512,12.562.108S2279.693,572.622,2279.693,572.622Z" transform="translate(-2078.024 -502.172)" fill="#fcede2"/><path d="M2298.173,681.892s5,2.555,6.351-3.235,5.013-13.068,11.806-8.033,15.375,11.957,9.046,14.426-8.766,9.014-15,7.041-8.5-3.7-7.925-1.693C2303,692.4,2291.456,688.178,2298.173,681.892Z" transform="translate(-2122.317 -606.913)" fill="#ebaa76"/><path d="M2349.435,713.9s3.45,3.44,5.176,5.391,3.31,3.051.01,3.213-2.4,1.4-5.833,4.248-11.655,6.663-16.259-2.4c-.593-1.164-.582-1.391.636-1.132s4.982.022,6.642-2.7S2349.435,713.9,2349.435,713.9Z" transform="translate(-2154.505 -647.03)" fill="#eaa645"/><path d="M2344.678,691s5.693,2.415,7.548,5.283,4.27,4.6.172,2.836-3.58-.841-5.316,1.8-7.58,7.267-11.289,5.132-5.758-3.181-1.919-3.256,8.032-7.267,7.623-9.337C2341.066,691.388,2344.678,691,2344.678,691Z" transform="translate(-2154.213 -626.599)" fill="#e19325"/><path d="M2338.382,694.28s1.078-.442.82-2.814,4.42-6.34,8.777-2.275a74.636,74.636,0,0,1,7.041,7.494s-4.1-1.844-6.825-3.353-5.165-2.253-6.308,1.628-4.021,5.887-7.159,5.294l-3.127-.6S2337.822,699.25,2338.382,694.28Z" transform="translate(-2154.019 -623.42)" fill="#db8626"/></g></g></svg>