<svg xmlns="http://www.w3.org/2000/svg" width="4444.917" height="4196.523" viewBox="0 0 4444.917 4196.523"><g transform="translate(914.829 2452.432)"><g transform="translate(2044.935 1160.844) rotate(179)"><g transform="translate(0 0)"><path d="M0,1134.4,877.727,1365.97l891.52-216.409,10.2-900.445L888.733,0,10.346,220.9Z" transform="translate(185.54 0)" fill="none" stroke="#c2943a" stroke-miterlimit="10" stroke-width="2"/><path d="M0,600.153l505.043,606.883L1641.211,1224.3l505.334-599.933L1654.657,0,509.743.219Z" transform="translate(0 74.85)" fill="none" stroke="#c2943a" stroke-miterlimit="10" stroke-width="2"/></g></g><g transform="translate(3614.237 -611.942) rotate(141)"><g transform="translate(0 0)"><path d="M0,2066.143,1598.645,2487.9,3222.412,2093.75l18.575-1640.022L1618.689,0,18.843,402.344Z" transform="translate(337.933 0)" fill="none" stroke="#c2943a" stroke-miterlimit="10" stroke-width="2"/><path d="M0,1093.087,919.858,2198.431l2069.355,31.444L3909.6,1137.188,3013.7,0,928.418.4Z" transform="translate(0 136.329)" fill="none" stroke="#c2943a" stroke-miterlimit="10" stroke-width="2"/></g></g></g></svg>